<svg width="30" height="30" viewBox="0 0 30 30" fill="none" xmlns="http://www.w3.org/2000/svg">
<path d="M15 29C7.26801 29 1 22.732 1 15C1 7.26801 7.26802 0.999998 15 0.999999C22.732 1 29 7.26802 29 15C29 22.732 22.732 29 15 29Z" stroke="white" stroke-width="2"/>
<path d="M9.23047 14C8.67818 14 8.23047 14.4477 8.23047 15C8.23047 15.5523 8.67818 16 9.23047 16L9.23047 14ZM22.6299 15.7071C23.0204 15.3166 23.0204 14.6834 22.6299 14.2929L16.2659 7.92893C15.8754 7.53841 15.2422 7.53841 14.8517 7.92893C14.4612 8.31946 14.4612 8.95262 14.8517 9.34315L20.5086 15L14.8517 20.6569C14.4612 21.0474 14.4612 21.6805 14.8517 22.0711C15.2422 22.4616 15.8754 22.4616 16.2659 22.0711L22.6299 15.7071ZM9.23047 15L9.23047 16L21.9228 16L21.9228 15L21.9228 14L9.23047 14L9.23047 15Z" fill="white"/>
</svg>
