<svg width="30" height="30" viewBox="0 0 30 30" fill="none" xmlns="http://www.w3.org/2000/svg">
<circle cx="15" cy="15" r="14" stroke="white" stroke-width="2"/>
<path d="M20.769 16C21.3213 16 21.769 15.5523 21.769 15C21.769 14.4477 21.3213 14 20.769 14V16ZM7.36963 14.2929C6.9791 14.6834 6.9791 15.3166 7.36963 15.7071L13.7336 22.0711C14.1241 22.4616 14.7573 22.4616 15.1478 22.0711C15.5383 21.6805 15.5383 21.0474 15.1478 20.6569L9.49095 15L15.1478 9.34315C15.5383 8.95262 15.5383 8.31946 15.1478 7.92893C14.7573 7.53841 14.1241 7.53841 13.7336 7.92893L7.36963 14.2929ZM20.769 15V14L8.07674 14V15V16H20.769V15Z" fill="white"/>
</svg>
