<svg width="26" height="26" viewBox="0 0 26 26" fill="none" xmlns="http://www.w3.org/2000/svg">
<g clip-path="url(#clip0_321_360)">
<path d="M25.0264 9.81641C25.2168 9.66504 25.5 9.80664 25.5 10.0459V20.0312C25.5 21.3252 24.4502 22.375 23.1562 22.375H2.84375C1.5498 22.375 0.5 21.3252 0.5 20.0312V10.0508C0.5 9.80664 0.77832 9.66992 0.973633 9.82129C2.06738 10.6709 3.51758 11.75 8.49805 15.3682C9.52832 16.1201 11.2666 17.7021 13 17.6924C14.7432 17.707 16.5156 16.0908 17.5068 15.3682C22.4873 11.75 23.9326 10.666 25.0264 9.81641ZM13 16.125C14.1328 16.1445 15.7637 14.6992 16.584 14.1035C23.0635 9.40137 23.5566 8.99121 25.0508 7.81934C25.334 7.59961 25.5 7.25781 25.5 6.89648V5.96875C25.5 4.6748 24.4502 3.625 23.1562 3.625H2.84375C1.5498 3.625 0.5 4.6748 0.5 5.96875V6.89648C0.5 7.25781 0.666016 7.59473 0.949219 7.81934C2.44336 8.98633 2.93652 9.40137 9.41602 14.1035C10.2363 14.6992 11.8672 16.1445 13 16.125Z" fill="white"/>
</g>
<defs>
<clipPath id="clip0_321_360">
<rect width="25" height="25" fill="white" transform="translate(0.5 0.5)"/>
</clipPath>
</defs>
</svg>
