<svg width="1440" height="90" viewBox="0 0 1440 90" fill="none" xmlns="http://www.w3.org/2000/svg">
<path fill-rule="evenodd" clip-rule="evenodd" d="M1014.98 8.27637C1014.96 8.31416 1014.95 8.36452 1014.92 8.39811C1014.98 8.41701 1015.06 8.39818 1015.11 8.41708L1014.98 8.27637Z" fill="#101010"/>
<path fill-rule="evenodd" clip-rule="evenodd" d="M1434.67 5.08894C1434.47 5.06794 1434.24 5.06579 1434.07 5.14558C1430.51 6.66995 1426.78 5.69155 1423.14 5.90361C1420.49 6.05479 1417.83 6.19971 1415.18 6.34459C1413.15 6.45587 1411.13 6.66583 1409.1 6.69522C1399.1 6.8359 1389.09 5.21909 1379.09 6.82325C1378.52 6.90933 1377.89 6.68055 1377.29 6.59026C1372.24 5.81548 1367.21 4.91886 1362.14 4.27426C1354.24 3.26642 1346.31 2.31322 1338.36 1.54894C1335.53 1.28648 1332.62 1.47956 1329.78 1.71682C1326.31 2.01288 1322.86 2.54831 1319.42 3.05014C1307.06 4.84116 1294.65 6.1661 1282.2 7.05636C1276.71 7.4532 1271.19 7.23484 1265.77 8.58703C1264.44 8.91878 1262.56 9.1413 1261.6 8.46311C1258.51 6.27524 1255.14 6.6301 1251.22 6.6364C1252.31 6.85476 1252.94 6.85478 1253.45 7.10044C1253.93 7.3566 1254.58 7.85214 1254.6 8.26998C1254.62 8.70881 1254.08 9.35133 1253.62 9.60329C1253.13 9.87835 1252.42 9.71237 1251.84 9.88664C1248.6 10.8819 1245.36 9.26314 1242.15 9.88254C1238.48 10.5985 1234.84 10.2541 1231.18 9.78591C1229.82 9.62004 1228.41 9.76285 1227.15 9.76285C1226.41 11.6316 1227.13 12.6499 1228.59 12.5806C1232.05 12.3958 1235.43 12.4399 1239.56 14.7243C1235.16 13.9118 1231.86 15.9884 1228.35 14.6446C1227.69 14.3801 1226.74 14.674 1225.95 14.8818C1221.74 16.0262 1217.45 15.5957 1213.18 15.5054C1212.24 15.4844 1211.19 15.2493 1211.38 13.5948C1212.98 13.3407 1214.6 13.1685 1216.16 12.8074C1217.65 12.4652 1219.54 13.2084 1220.62 11.2159C1220.17 10.8442 1219.78 10.3067 1219.27 10.1618C1216.74 9.4227 1213.97 10.4494 1211.48 9.13925C1211.22 8.99227 1210.69 9.49825 1210.33 9.44156C1209.6 9.30928 1208.55 9.2001 1208.28 8.70878C1207 6.51462 1205.07 6.61745 1202.94 6.63845C1197.33 6.69724 1191.76 8.08517 1185.91 11.115C1186.09 13.6451 1189.55 11.4908 1189.9 14.0294C1189 14.3611 1188.11 14.6907 1186.93 15.1128C1187.02 16.3999 1187.11 17.7668 1187.19 19.2555C1195.66 21.0423 1204.02 20.6203 1212.25 21.0108C1213.1 22.3924 1213.81 23.5451 1214.74 25.0737C1212.97 25.5839 1211.69 25.9576 1210.45 26.3104C1210.12 27.3539 1209.81 28.2861 1209.58 29.0126C1206.99 30.1233 1204.86 29.2625 1202.67 28.7942C1200.24 28.284 1200.16 28.408 1198.5 31.0536C1198.3 31.3664 1197.95 31.5848 1197.57 31.9522C1197.21 31.0074 1196.89 30.1129 1196.54 29.1681C1194.34 28.9497 1192.15 28.7313 1189.73 28.4856C1188.91 30.0373 1188.19 31.4797 1187.39 32.8676C1185.95 35.3746 1184.58 36.0528 1181.9 35.6182C1179.75 35.2654 1177.6 34.856 1175.36 34.4529C1175.36 33.1742 1175.46 32.1412 1175.34 31.1355C1175.21 30.0814 1176.91 29.1008 1175.31 27.8368C1173.95 29.0504 1172.64 30.2346 1171.28 31.4504C1171.95 32.8256 1172.52 33.972 1173.18 35.3179C1167.88 36.8864 1163.57 36.1809 1160.11 32.1138L1160.28 31.9795C1156.03 33.7033 1156.03 33.7033 1153.06 30.6126C1153.37 29.7035 1153.69 28.7711 1154.07 27.6625C1152.23 26.9948 1150.44 26.346 1148.25 25.5566C1149.15 24.807 1149.57 24.1394 1150.03 24.1205C1152.44 24.0344 1154.96 23.7256 1157.27 24.24C1160.37 24.9287 1162.85 24.4227 1165.11 22.1446C1164.58 21.3761 1164.05 20.6077 1163.21 19.3814C1165.13 19.1946 1166.67 18.8985 1168.21 18.9195C1170.05 18.9509 1171.88 19.3478 1173.71 19.4171C1175.7 19.5011 1176.46 18.5311 1176.21 16.2299C1176.14 15.5412 1175.64 14.8965 1175.36 14.296C1173.12 15.1674 1171.28 15.8897 1169.39 16.6183C1168.3 15.5916 1167.52 14.6319 1166.53 13.9915C1164.07 12.379 1161.14 13.6682 1161.23 16.4797C1161.26 17.3783 1161.1 18.2833 1161.02 19.1861C1160.78 19.2176 1160.52 19.2554 1160.27 19.2848C1159.34 17.1998 1158.41 15.1065 1157.51 13.0824C1156.73 12.9606 1156.09 12.6939 1155.53 12.8052C1151.38 13.6913 1147.11 11.8394 1142.96 13.3364C1142.55 13.4813 1141.35 12.6373 1141.25 12.1145C1141.14 11.556 1141.76 10.6069 1142.33 10.2437C1143.08 9.73766 1144.1 9.62426 1145.83 9.07415C1142.33 8.45684 1139.75 7.72188 1137.13 7.5791C1131.23 7.26625 1125.3 7.25995 1119.38 7.08148C1119.07 7.07728 1118.76 6.6763 1118.37 6.41174C1118.37 5.66846 1118.37 4.87478 1118.37 3.96772C1114.89 2.61133 1111.39 1.6287 1107.63 1.73579C1104.04 1.83867 1100.39 0.520039 1096.84 2.0927C1093.39 1.06176 1089.94 1.97091 1086.48 2.0381C1085.5 2.0633 1084.54 1.59303 1083.55 1.46705C1079.31 0.927432 1075.07 0.385719 1070.81 0.00147851C1070.25 -0.040515 1069.13 0.824461 1069.12 1.27379C1069.11 1.90999 1069.78 2.86964 1070.4 3.10691C1071.25 3.45965 1072.32 3.26009 1073.3 3.32938C1074.65 3.43437 1076.09 3.41346 1076.78 5.55093C1072.34 5.7966 1068.15 6.02125 1063.99 6.24591C1063.83 8.74243 1063.83 8.7424 1060.69 13.1475C1058.49 13.3407 1056.24 13.4813 1054.02 13.7501C1051.79 14.0168 1049.59 14.5102 1047.35 14.7411C1045.3 14.949 1043.14 14.3149 1040.32 15.7343C1042.43 16.0535 1043.62 16.2866 1044.82 16.3999C1045.7 16.4797 1046.42 16.6078 1046.05 18.1007C1045 18.254 1043.82 18.4135 1042.65 18.6046C1041.28 18.8334 1039.93 19.0832 1038.7 19.3079C1038.7 20.4543 1038.7 21.2271 1038.7 21.9767C1033.28 22.5814 1033.28 22.5814 1029.01 26.2474C1027.97 25.164 1026.91 24.0532 1025.65 22.7514C1024.31 23.8663 1023.24 24.7628 1022.16 25.6615C1020.92 26.705 1019.61 26.8982 1018.25 25.9009C1017.29 25.1954 1016.36 24.4458 1015.69 23.9272C1013.53 24.5004 1011.58 25.6805 1010.07 25.271C1007.05 24.4501 1004.45 25.649 1001.69 26.1488C1000.11 24.343 998.467 23.5766 996.286 25.0233C995.513 25.5398 994.363 25.7141 993.855 24.1645C994.266 23.8097 994.65 23.207 995.148 23.0915C999.694 22.0795 1004.25 21.1368 1009.19 20.1037C1009.14 19.1652 1009.08 18.065 1008.99 16.444C1007.71 17.6345 1006.88 18.4072 1006.07 19.161C1004.36 18.8629 1002.76 18.55 1001.16 18.3043C999.442 18.0566 997.539 18.9175 995.843 17.559C996.336 15.8603 998.081 16.3705 998.743 15.5663C999.583 14.5438 1000.03 13.1937 1000.47 12.3056C1003.02 12.3832 1005.28 12.0325 1007.29 12.6141C1009.94 13.3679 1011.36 11.1612 1013.46 10.6845C1014.08 10.5376 1014.46 9.25473 1014.92 8.40646C1013.26 8.1755 1011.37 8.92719 1010.13 6.9136C1009.37 5.67479 1008.02 6.01274 1006.8 6.39278C1006.01 6.61744 1005.17 6.84424 1004.86 5.60963C1005.92 3.69262 1007.72 4.78448 1009.21 4.58081C1010.12 4.45693 1011.33 4.77823 1011.53 2.87802C1007.83 2.54418 1004.09 1.01763 1001.04 4.81174C998.774 4.57028 996.301 4.87692 994.359 4.00975C989.382 1.79879 984.286 2.9284 979.237 2.73103C978.502 2.70374 977.706 3.19925 977.011 3.58979C976.761 3.72417 976.734 4.26161 976.482 4.9818C977.779 5.53402 979.102 6.10723 981.429 7.10877C978.672 7.54341 977.086 8.73612 975.224 7.83746C974.361 7.41962 973.685 6.59657 972.866 6.04856C972.102 5.55093 970.796 6.48941 970.309 5.31359C970.622 4.48632 970.882 3.80602 971.065 3.33989C969.053 2.6344 967.401 1.96038 965.702 1.48166C963.751 0.935742 961.786 0.509488 959.794 0.17564C959.285 0.100052 958.683 0.570492 958.055 0.816154C957.444 2.31322 956.846 3.79137 956.306 5.14776C950.973 6.96608 945.474 4.87054 940.477 6.75814C940.195 16.8744 935.576 19.2323 927.671 21.5881C928.968 22.9067 931.297 21.1263 932.615 23.4002C931.102 24.1729 929.718 24.8952 928.359 25.5944C926.703 23.5493 924.872 23.2364 922.68 23.7341C919.707 24.4165 916.702 24.9057 913.706 25.3592C913.433 25.3991 913.032 24.6537 912.549 24.1288C914.17 23.186 916.691 23.8811 916.794 21.0381C914.396 20.0743 912.647 17.4036 909.846 17.6093C905.145 17.9495 900.539 16.5238 895.858 17.1705C893.595 17.4792 891.888 16.7674 890.708 14.7223C890.462 14.3002 889.715 14.1679 889.104 13.8488C888.157 14.7138 887.29 15.5181 886.456 16.2845C885.186 16.1732 883.985 16.0324 882.786 15.982C880.848 15.919 879.571 15.3395 878.435 13.391C877.012 10.9911 874.328 11.5833 872.733 14.2414C872.359 14.8734 871.937 15.4698 871.462 16.2089C870.108 15.4593 869.085 14.8902 868.08 14.3422C866.824 15.1065 865.644 15.8309 864.162 16.7421C863.484 15.8372 862.946 15.0561 862.337 14.3254C861.1 12.8409 859.769 12.7149 858.186 13.8613C854.869 16.2676 854.81 16.255 852.37 13.263C848.588 13.6325 845.008 14.063 841.424 14.3023C837.697 14.5438 834.315 13.3911 831.43 10.8442C829.964 13.0237 828.238 13.5464 825.987 13.5716C816.279 13.6829 806.555 13.6829 796.857 14.5753C792.032 15.0204 787.2 15.9611 782.436 13.9664C781.665 13.6494 780.506 14.3633 779.513 14.464C773.137 15.1401 766.741 17.4896 760.425 13.9517C758.75 13.0152 756.839 13.3155 755.291 14.7328C753.57 16.3201 751.6 16.2551 749.555 15.4929C748.23 14.9931 746.907 14.4682 745.438 13.8991C743.978 14.5563 742.347 16.4252 740.587 15.2073C738.635 13.8594 736.401 15.243 734.839 14.254C732.51 12.7737 730.555 14.2939 728.495 14.1701C725.833 14.0189 723.192 13.6262 720.533 13.5716V13.517C720.353 13.5086 720.179 13.5485 719.994 13.5485C719.813 13.5485 719.63 13.5107 719.452 13.517V13.5716C716.796 13.6262 714.152 14.0189 711.486 14.1701C709.432 14.296 707.471 12.7737 705.149 14.254C703.587 15.2451 701.346 13.8594 699.402 15.2073C697.636 16.4252 696.009 14.5542 694.55 13.8991C693.084 14.4682 691.755 14.9931 690.432 15.4929C688.385 16.253 686.412 16.318 684.69 14.7328C683.142 13.3155 681.236 13.0152 679.562 13.9517C673.244 17.4917 666.849 15.1401 660.472 14.464C659.477 14.3633 658.32 13.6473 657.549 13.9664C652.787 15.9611 647.952 15.0204 643.127 14.5753C633.437 13.6829 623.709 13.6829 613.996 13.5716C611.749 13.5464 610.025 13.0237 608.558 10.8442C605.673 13.3911 602.296 14.5438 598.563 14.3023C594.977 14.063 591.399 13.6325 587.618 13.263C585.182 16.255 585.129 16.2697 581.808 13.8613C580.216 12.7149 578.896 12.8409 577.657 14.3254C577.048 15.0582 576.506 15.8393 575.826 16.7421C574.346 15.8309 573.161 15.1086 571.904 14.3422C570.9 14.8902 569.882 15.4572 568.525 16.2089C568.044 15.4698 567.629 14.8734 567.257 14.2414C565.663 11.5812 562.972 10.989 561.556 13.391C560.418 15.3416 559.14 15.919 557.206 15.982C556.005 16.0324 554.806 16.1753 553.538 16.2845C552.704 15.5181 551.833 14.7138 550.884 13.8488C550.266 14.1679 549.523 14.3002 549.286 14.7223C548.104 16.7674 546.384 17.4792 544.131 17.1705C539.453 16.5238 534.844 17.9495 530.143 17.6093C527.342 17.4036 525.593 20.0743 523.195 21.0381C523.294 23.8811 525.818 23.1839 527.443 24.1288C526.958 24.6537 526.563 25.3991 526.28 25.3592C523.283 24.9036 520.279 24.4165 517.314 23.7341C515.118 23.2364 513.293 23.5493 511.63 25.5944C510.268 24.8952 508.878 24.1729 507.374 23.4002C508.691 21.1263 511.026 22.9067 512.321 21.5881C504.412 19.2323 499.794 16.8744 499.511 6.75814C494.52 4.87264 489.019 6.96818 483.684 5.14776C483.14 3.79137 482.541 2.31112 481.932 0.816154C481.305 0.570492 480.698 0.100052 480.19 0.17564C478.206 0.509488 476.232 0.935742 474.29 1.48166C472.587 1.96038 470.936 2.6344 468.923 3.33989C469.103 3.80602 469.366 4.48632 469.679 5.31359C469.196 6.48941 467.888 5.54883 467.121 6.04856C466.298 6.59867 465.628 7.41962 464.768 7.83746C462.909 8.73822 461.32 7.54341 458.557 7.10877C460.885 6.10723 462.21 5.53402 463.508 4.9818C463.254 4.26161 463.235 3.72417 462.979 3.58979C462.286 3.19715 461.488 2.70374 460.757 2.73103C455.707 2.9305 450.605 1.80089 445.637 4.00975C443.687 4.87692 441.218 4.57028 438.95 4.81174C435.905 1.01763 432.168 2.54418 428.456 2.87802C428.662 4.77823 429.865 4.45903 430.786 4.58081C432.269 4.78658 434.074 3.69262 435.133 5.60963C434.824 6.84424 433.982 6.61744 433.195 6.39278C431.975 6.01274 430.621 5.67479 429.858 6.9136C428.624 8.92719 426.736 8.1755 425.075 8.40646C425.537 9.25473 425.905 10.5376 426.537 10.6845C428.634 11.1612 430.047 13.3679 432.708 12.6141C434.717 12.0346 436.983 12.3853 439.515 12.3056C439.968 13.1937 440.409 14.5417 441.255 15.5663C441.915 16.3705 443.657 15.8624 444.149 17.559C442.448 18.9175 440.554 18.0566 438.843 18.3043C437.239 18.55 435.641 18.865 433.923 19.161C433.113 18.4093 432.279 17.6345 431.009 16.444C430.923 18.065 430.86 19.1652 430.812 20.1037C435.746 21.1368 440.298 22.0774 444.848 23.0915C445.343 23.207 445.732 23.8097 446.143 24.1645C445.635 25.7141 444.48 25.5398 443.706 25.0233C441.524 23.5787 439.884 24.343 438.297 26.1488C435.54 25.649 432.949 24.4501 429.926 25.271C428.412 25.6805 426.465 24.5025 424.305 23.9272C423.631 24.4437 422.703 25.1954 421.739 25.9009C420.378 26.8982 419.079 26.705 417.827 25.6615C416.756 24.7628 415.688 23.8684 414.335 22.7514C413.084 24.0532 412.026 25.164 410.984 26.2474C406.712 22.5814 406.712 22.5814 401.296 21.9767C401.296 21.2271 401.296 20.4522 401.296 19.3079C400.064 19.0832 398.712 18.8334 397.345 18.6046C396.175 18.4135 395.002 18.254 393.941 18.1007C393.574 16.6078 394.29 16.4818 395.178 16.3999C396.377 16.2845 397.565 16.0535 399.671 15.7343C396.856 14.3149 394.687 14.949 392.639 14.7411C390.408 14.5123 388.207 14.0168 385.975 13.7501C383.749 13.4813 381.503 13.3407 379.309 13.1475C376.157 8.7403 376.157 8.74033 376.006 6.24591C371.846 6.02125 367.649 5.7966 363.21 5.55093C363.908 3.41346 365.348 3.43437 366.702 3.32938C367.672 3.26009 368.741 3.45755 369.596 3.10691C370.209 2.86964 370.881 1.90999 370.872 1.27379C370.862 0.822362 369.74 -0.040515 369.182 0.00147851C364.928 0.387819 360.682 0.927432 356.437 1.46705C355.45 1.59513 354.488 2.0633 353.52 2.0381C350.06 1.97301 346.606 1.06176 343.156 2.0927C339.612 0.520039 335.959 1.83867 332.362 1.73579C328.61 1.6266 325.101 2.61133 321.628 3.96772C321.628 4.87478 321.628 5.67056 321.628 6.41174C321.24 6.6763 320.929 7.07728 320.612 7.08148C314.704 7.25995 308.768 7.26625 302.868 7.5791C300.245 7.71978 297.665 8.45684 294.171 9.07415C295.903 9.62426 296.913 9.73556 297.673 10.2437C298.238 10.6069 298.857 11.556 298.75 12.1145C298.645 12.6373 297.449 13.4813 297.041 13.3364C292.888 11.8394 288.617 13.6913 284.473 12.8052C283.906 12.6918 283.267 12.9606 282.484 13.0824C281.588 15.1065 280.664 17.1998 279.727 19.2848C279.477 19.2554 279.223 19.2176 278.971 19.1861C278.898 18.2833 278.734 17.3783 278.77 16.4797C278.868 13.6661 275.931 12.379 273.468 13.9915C272.475 14.6319 271.7 15.5916 270.608 16.6183C268.727 15.8876 266.875 15.1674 264.635 14.296C264.36 14.8965 263.856 15.5412 263.782 16.2299C263.545 18.5332 264.305 19.5032 266.287 19.4171C268.122 19.3478 269.951 18.9488 271.782 18.9195C273.325 18.8964 274.869 19.1946 276.792 19.3814C275.944 20.6098 275.425 21.3761 274.89 22.1446C277.145 24.4227 279.626 24.9287 282.732 24.24C285.042 23.7277 287.561 24.0344 289.972 24.1205C290.425 24.1394 290.853 24.807 291.752 25.5566C289.566 26.346 287.777 26.9948 285.934 27.6625C286.303 28.7711 286.631 29.7056 286.942 30.6126C283.969 33.7054 283.969 33.7054 279.723 31.9795L279.883 32.1138C276.429 36.183 272.126 36.8864 266.812 35.3179C267.476 33.972 268.047 32.8277 268.731 31.4504C267.364 30.2346 266.042 29.0504 264.689 27.8368C263.083 29.1008 264.788 30.0814 264.664 31.1355C264.545 32.1412 264.637 33.1742 264.637 34.4529C262.392 34.856 260.251 35.2654 258.099 35.6182C255.413 36.0507 254.05 35.3746 252.616 32.8676C251.81 31.4797 251.098 30.0373 250.269 28.4856C247.85 28.7313 245.654 28.9497 243.455 29.1681C243.107 30.1129 242.783 31.0074 242.437 31.9522C242.042 31.5848 241.694 31.3685 241.496 31.0536C239.842 28.408 239.752 28.284 237.331 28.7942C235.141 29.2646 232.999 30.1254 230.421 29.0126C230.19 28.2861 229.885 27.3539 229.556 26.3104C228.315 25.9576 227.019 25.5839 225.255 25.0737C226.19 23.5472 226.908 22.3945 227.748 21.0108C235.978 20.6203 244.339 21.0423 252.797 19.2555C252.891 17.7668 252.982 16.402 253.066 15.1128C251.89 14.6928 250.995 14.3632 250.103 14.0294C250.445 11.4908 253.903 13.6451 254.08 11.115C248.234 8.08517 242.662 6.69724 237.049 6.63845C234.929 6.61745 232.991 6.51462 231.72 8.70878C231.439 9.198 230.387 9.30928 229.667 9.44156C229.308 9.49825 228.772 8.99227 228.518 9.13925C226.03 10.4494 223.254 9.4227 220.724 10.1618C220.216 10.3067 219.83 10.8442 219.378 11.2159C220.458 13.2084 222.347 12.4652 223.836 12.8074C225.404 13.1685 227.013 13.3407 228.611 13.5948C228.802 15.2493 227.76 15.4844 226.813 15.5054C222.543 15.5957 218.259 16.0262 214.043 14.8818C213.264 14.6719 212.315 14.3801 211.643 14.6446C208.141 15.9884 204.838 13.9118 200.439 14.7243C204.571 12.4378 207.944 12.3958 211.419 12.5806C212.865 12.6499 213.596 11.6316 212.846 9.76285C211.591 9.76285 210.184 9.62004 208.823 9.78591C205.159 10.2541 201.527 10.5985 197.848 9.88254C194.642 9.26314 191.404 10.8819 188.169 9.88664C187.591 9.71237 186.88 9.87835 186.386 9.60329C185.926 9.35133 185.385 8.70881 185.399 8.26998C185.418 7.85424 186.078 7.3566 186.554 7.10044C187.058 6.85688 187.688 6.85686 188.788 6.6364C184.866 6.6301 181.494 6.27524 178.401 8.46311C177.439 9.1392 175.558 8.91878 174.229 8.58703C168.812 7.23694 163.294 7.4532 157.805 7.05636C145.352 6.1661 132.939 4.83906 120.58 3.05014C117.139 2.55041 113.689 2.01288 110.225 1.71682C107.384 1.47956 104.478 1.28648 101.645 1.54894C93.6981 2.31322 85.7697 3.26432 77.856 4.27426C72.7874 4.91886 67.7608 5.81338 62.7089 6.59026C62.1126 6.68055 61.489 6.90933 60.9158 6.82325C50.9108 5.21909 40.9038 6.838 30.9051 6.69522C28.8768 6.66583 26.8528 6.45587 24.8245 6.34459C22.1705 6.19971 19.5186 6.05479 16.8688 5.90361C13.2175 5.68945 9.48844 6.66785 5.93369 5.14558C5.75941 5.06579 5.52425 5.06794 5.32688 5.08894C3.55266 5.25271 1.77843 5.34928 0 5.41227L0 85.536C1.84142 85.3785 3.67654 85.137 5.52215 84.7381C6.27384 84.5659 7.19769 84.6267 7.88639 84.927C10.807 86.2015 13.9167 85.9306 16.9549 86.1805C17.7654 86.2456 18.6598 85.9159 19.38 86.1637C24.6229 87.9862 29.4543 86.5144 34.2142 84.4294C35.9717 83.6651 37.3616 83.8583 38.3863 85.6157C39.0939 86.8314 40.2739 86.9868 41.5715 86.9868C52.1959 86.9385 62.8202 86.928 73.4425 86.9553C75.876 86.9553 78.4691 86.6257 79.7604 89.0424C82.0323 88.2676 83.8779 87.2219 85.8054 87.0708C94.7752 86.3443 103.764 85.7207 112.751 85.3407C124.208 84.8683 135.675 84.7024 147.137 84.3517C153.018 84.1732 158.899 83.7135 164.774 83.7534C167.783 83.7744 170.83 83.9422 173.817 84.1732C184.454 84.9879 195.085 85.0257 205.714 84.7023C213.268 84.4672 220.806 83.5937 228.367 83.2766C233.467 83.0583 238.59 83.283 243.697 83.3082C244.713 83.3103 245.765 83.4321 246.752 83.239C249.049 82.7749 251.086 80.6037 253.689 82.2541C256.087 81.5213 258.502 81.9223 260.95 82.0357C264.618 82.1932 268.307 81.9959 271.982 81.8594C272.771 81.8258 273.546 81.4395 274.302 81.1686C275.077 80.9104 275.855 80.2553 276.569 80.3372C282.503 80.8663 288.273 78.9766 294.192 79.3356C298.687 79.6065 303.141 79.3902 307.64 78.7477C311.863 78.1556 316.218 78.3068 320.52 78.3572C322.296 78.3761 324.072 79.0017 326.143 79.4111C328.27 77.7797 330.693 76.1378 333.72 77.9708C336.641 77.2065 339.61 78.2081 342.611 77.5971C346.587 76.7908 350.705 76.541 354.763 76.4045C356.269 76.3541 357.955 77.0575 359.282 77.8658C360.733 78.7456 361.881 78.838 363.215 77.8931C364.76 76.7992 365.944 77.6706 366.967 78.7456C369.661 81.5508 369.617 81.534 373.077 79.6485C373.696 79.2999 374.958 79.006 375.242 79.3209C377.075 81.3282 379.367 80.9545 381.543 80.6269C385.746 80.0033 390.147 80.7571 394.181 78.838C394.626 78.6238 395.321 78.8569 395.888 78.9913C396.471 79.132 397.091 79.6652 397.582 79.5476C402.487 78.4453 407.297 79.976 412.16 79.8879C413.997 79.8606 415.853 79.9319 417.657 80.207C419.864 80.5282 422.031 81.4353 424.223 81.4689C426.207 81.4962 428.197 80.3834 430.207 80.2868C437.15 79.9509 444.121 79.4721 451.055 79.7366C462.099 80.1608 473.124 80.1923 484.154 79.8563C491.526 79.6254 498.9 79.8143 506.268 79.659C513.02 79.5141 519.771 79.1404 526.521 78.8821C527.951 78.8254 529.4 78.6553 530.809 78.796C544.7 80.1881 558.625 79.4196 572.527 79.68C575.595 79.7367 578.648 80.0536 581.707 80.1103C586.213 80.1922 590.717 80.2511 595.151 79.1781C596.327 78.8821 597.595 78.7813 598.815 78.817C606.578 79.0501 614.267 77.9456 621.993 77.4732C624.081 77.3514 626 77.2738 627.665 78.9745C628.809 80.1314 630.354 80.1754 631.312 78.6342C632.691 76.4191 634.707 76.1693 636.624 77.1751C639.425 78.6449 642.165 78.1177 644.802 77.3387C648.491 76.2532 652.061 76.4255 655.679 77.3178C657.102 77.6769 658.421 77.4732 659.863 77.2422C664.699 76.4528 669.564 76.6963 674.802 77.3262C673.967 78.3949 673.417 79.1067 672.86 79.8143C675.955 81.2505 677.081 81.4415 678.985 79.1319C680.837 76.881 683.795 78.5209 685.593 76.5095C685.981 76.0685 687.512 76.5409 688.478 76.753C690.466 77.2086 692.585 77.4626 694.38 78.355C696.274 79.2978 697.859 78.6343 699.499 78.2122C700.49 79.0437 699.178 80.9146 701.042 81.2127C702.457 81.4248 702.48 80.0747 703.056 79.365C705.97 81.0447 705.97 81.0448 710.363 78.7939C710.934 79.4112 711.526 80.1566 712.223 80.7739C713.243 81.6684 714.383 81.6956 715.641 81.1476C716.949 80.5849 715.922 79.8731 715.851 79.1068C716.651 79.0438 717.447 78.9745 718.205 78.9031C718.665 79.8228 719.055 80.5996 719.463 81.4038V82.5922C719.599 82.6384 719.742 82.6741 719.882 82.714C719.914 82.6447 719.964 82.5481 720.004 82.483C720.042 82.5481 720.086 82.6447 720.126 82.714C720.265 82.6741 720.403 82.6404 720.544 82.5922V81.408C720.949 80.5975 721.34 79.8207 721.802 78.9031C722.557 78.9745 723.353 79.0417 724.153 79.1068C724.084 79.871 723.049 80.5828 724.365 81.1476C725.615 81.6956 726.761 81.6684 727.781 80.7739C728.481 80.1566 729.062 79.4112 729.646 78.7939C734.028 81.0448 734.028 81.0447 736.953 79.365C737.524 80.0747 737.551 81.4227 738.96 81.2127C740.827 80.9146 739.514 79.0458 740.501 78.2122C742.147 78.6343 743.733 79.2999 745.622 78.355C747.416 77.4626 749.53 77.2086 751.525 76.753C752.495 76.5388 754.021 76.0685 754.41 76.5095C756.203 78.5209 759.174 76.881 761.017 79.1319C762.917 81.4436 764.047 81.2505 767.138 79.8143C766.583 79.1046 766.031 78.3928 765.193 77.3262C770.436 76.6963 775.299 76.4528 780.135 77.2422C781.575 77.4732 782.894 77.6769 784.322 77.3178C787.941 76.4234 791.511 76.2511 795.202 77.3387C797.835 78.1177 800.575 78.6449 803.372 77.1751C805.291 76.1693 807.305 76.4212 808.686 78.6342C809.65 80.1754 811.189 80.1314 812.335 78.9745C814 77.2738 815.915 77.3535 818.005 77.4732C825.731 77.9456 833.418 79.0501 841.191 78.817C842.403 78.7813 843.671 78.8821 844.847 79.1781C849.286 80.2532 853.794 80.1922 858.289 80.1103C861.348 80.0536 864.412 79.7367 867.467 79.68C881.377 79.4196 895.302 80.1881 909.189 78.796C910.604 78.6553 912.045 78.8254 913.485 78.8821C920.234 79.1404 926.976 79.5141 933.73 79.659C941.1 79.8143 948.476 79.6233 955.85 79.8563C966.874 80.1923 977.903 80.1608 988.948 79.7366C995.877 79.4721 1002.86 79.9509 1009.8 80.2868C1011.8 80.3813 1013.79 81.4941 1015.78 81.4689C1017.97 81.4353 1020.14 80.5303 1022.35 80.207C1024.14 79.9298 1026.01 79.8606 1027.84 79.8879C1032.71 79.976 1037.51 78.4432 1042.42 79.5476C1042.91 79.6673 1043.53 79.1341 1044.11 78.9913C1044.68 78.8569 1045.37 78.6238 1045.82 78.838C1049.85 80.755 1054.26 80.0033 1058.46 80.6269C1060.63 80.9545 1062.93 81.3282 1064.76 79.3209C1065.04 79.008 1066.3 79.2999 1066.93 79.6485C1070.38 81.534 1070.34 81.5508 1073.03 78.7456C1074.05 77.6706 1075.24 76.7992 1076.79 77.8931C1078.11 78.838 1079.27 78.7456 1080.72 77.8658C1082.04 77.0554 1083.72 76.352 1085.24 76.4045C1089.3 76.541 1093.41 76.7929 1097.38 77.5971C1100.39 78.2081 1103.35 77.2044 1106.28 77.9708C1109.31 76.1378 1111.73 77.7776 1113.85 79.4111C1115.92 79.0017 1117.7 78.3761 1119.48 78.3572C1123.78 78.3068 1128.12 78.1535 1132.36 78.7477C1136.86 79.3923 1141.31 79.6065 1145.8 79.3356C1151.72 78.9766 1157.49 80.8663 1163.42 80.3372C1164.14 80.2553 1164.92 80.9104 1165.69 81.1686C1166.45 81.4395 1167.22 81.8258 1168.01 81.8594C1171.69 81.9959 1175.38 82.1932 1179.04 82.0357C1181.49 81.9223 1183.9 81.5234 1186.3 82.2541C1188.91 80.6037 1190.95 82.7749 1193.24 83.239C1194.23 83.4321 1195.28 83.3103 1196.3 83.3082C1201.4 83.283 1206.53 83.0583 1211.63 83.2766C1219.19 83.5916 1226.73 84.4651 1234.29 84.7023C1244.91 85.0257 1255.54 84.9879 1266.17 84.1732C1269.16 83.9422 1272.22 83.7744 1275.22 83.7534C1281.09 83.7156 1286.98 84.1732 1292.86 84.3517C1304.33 84.7024 1315.79 84.8683 1327.25 85.3407C1336.23 85.7228 1345.22 86.3443 1354.19 87.0708C1356.12 87.2198 1357.97 88.2655 1360.23 89.0424C1361.53 86.6257 1364.13 86.9553 1366.55 86.9553C1377.18 86.9259 1387.8 86.9385 1398.43 86.9868C1399.73 86.9868 1400.91 86.8314 1401.62 85.6157C1402.63 83.8583 1404.02 83.6651 1405.79 84.4294C1410.55 86.5144 1415.37 87.9862 1420.62 86.1637C1421.34 85.9159 1422.23 86.2456 1423.05 86.1805C1426.07 85.9306 1429.19 86.2015 1432.11 84.927C1432.8 84.6267 1433.73 84.5659 1434.47 84.7381C1436.32 85.137 1438.15 85.3785 1440 85.536V5.41227C1438.22 5.34928 1436.45 5.25271 1434.67 5.08894ZM1189.21 17.4771L1189.04 16.9962L1189.45 17.0298L1189.21 17.4771ZM1197.36 14.2939L1197.35 13.9853L1197.72 14.126L1197.36 14.2939ZM1205.55 15.6818C1205.1 15.3332 1204.56 14.9994 1204.59 14.9134C1204.78 14.4766 1205.08 14.0461 1205.45 13.7564C1205.54 13.6808 1206.32 14.1868 1206.29 14.2771C1206.13 14.7579 1205.83 15.1988 1205.55 15.6818ZM1150.82 18.9174L1150.81 19.2933L1150.41 19.0896L1150.82 18.9174ZM289.188 19.2933L289.178 18.9174L289.596 19.0896L289.188 19.2933ZM250.964 16.9983L250.796 17.4791L250.561 17.0319L250.964 16.9983ZM242.662 13.9832L242.651 14.2918L242.294 14.1238L242.662 13.9832ZM234.565 13.7564C234.935 14.0461 235.229 14.4766 235.414 14.9134C235.449 14.9994 234.899 15.3332 234.456 15.6818C234.185 15.2009 233.879 14.76 233.717 14.2771C233.69 14.1868 234.473 13.6808 234.565 13.7564ZM18.538 51.2272C18.5338 51.1264 18.5254 51.034 18.5149 50.9375C18.6766 50.9585 18.8593 50.9648 19.0042 51.0341C19.0483 51.0551 19.0168 51.2483 19.0168 51.3617C18.8593 51.3134 18.6934 51.2692 18.538 51.2272ZM24.2723 83.0163C26.5126 82.4431 28.0475 82.378 29.7188 84.232C27.4974 84.9459 26.0255 84.6625 24.2723 83.0163ZM91.0609 55.7857C90.9496 55.4308 90.8761 55.2125 90.8047 54.992C90.9538 55.0382 91.1008 55.0781 91.2519 55.1137C91.2015 55.2796 91.1511 55.4497 91.0609 55.7857ZM102.168 56.0544C102.069 55.9242 101.868 55.7037 101.883 55.6828C102.08 55.4917 102.305 55.3236 102.523 55.1389C102.62 55.2711 102.725 55.4014 102.825 55.5358C102.601 55.71 102.382 55.8801 102.168 56.0544ZM169.851 33.9342C170.364 33.9342 170.872 34.1128 171.39 34.2325C171.3 34.5453 171.233 35.1185 171.124 35.129C170.58 35.171 170.025 35.0619 169.431 35.0073C169.606 34.539 169.729 33.9342 169.851 33.9342ZM169.097 21.4097C168.978 21.5231 168.871 21.7015 168.74 21.7183C168.604 21.7393 168.442 21.6134 168.293 21.5378C168.562 21.5021 168.831 21.458 169.097 21.4097ZM167.084 46.3539C167.306 46.2573 167.72 46.6122 168.05 46.7696C167.905 47.0678 167.754 47.368 167.611 47.6725C167.248 47.5423 166.895 47.4226 166.54 47.2903C166.714 46.9649 166.815 46.4694 167.084 46.3539ZM165.406 34.9422C164.988 35.2718 164.6 35.6666 164.13 35.8765C163.947 35.9647 163.569 35.6203 163.281 35.4691C163.651 34.9673 164.016 34.4677 164.432 33.9028C164.948 34.4467 165.179 34.6923 165.406 34.9422ZM164.249 40.4475C164.023 40.626 163.766 40.7477 163.508 40.8884C163.466 40.7414 163.414 40.5861 163.367 40.4328C163.624 40.2963 163.88 40.1577 164.13 40.0171C164.172 40.164 164.295 40.4118 164.249 40.4475ZM164.329 21.2775C164.335 21.4434 164.342 21.6155 164.346 21.7751C162.908 21.7751 161.474 21.7751 160.033 21.7751C159.983 21.6155 159.934 21.4434 159.88 21.2775C161.366 21.2775 162.851 21.2775 164.329 21.2775ZM152.844 20.5047C153.694 20.3367 154.41 20.7756 154.425 22.1971C153.442 22.5583 152.342 22.9866 151.229 23.3499C149.934 23.7866 148.611 24.1729 147.084 24.6474C146.709 24.0763 146.297 23.438 145.508 22.2097C148.495 21.5021 150.654 20.9205 152.844 20.5047ZM153.047 34.1946C152.145 36.055 151.322 37.764 150.257 39.9603C149.06 37.3483 148.185 35.4376 147.129 33.1406C149.203 33.317 151.151 32.6283 153.047 34.1946ZM146.898 38.6249L146.497 38.5536L146.7 38.2638L146.898 38.6249ZM132.525 32.3952C132.502 32.5002 132.471 32.6051 132.443 32.7038C132.261 32.6933 132.076 32.6724 131.891 32.664C132.097 32.5737 132.313 32.4876 132.525 32.3952ZM120.706 57.3835C120.645 57.3793 120.605 57.1336 120.559 57.0034C120.717 56.9551 120.88 56.8649 121.03 56.8796C121.093 56.8838 121.13 57.1168 121.183 57.2491C121.019 57.3015 120.862 57.3919 120.706 57.3835ZM125.241 45.8017C126.289 45.0584 126.9 44.2605 127.438 44.3172C128.611 44.4389 129.77 44.9471 130.892 45.3985C131.091 45.4825 131.289 46.1838 131.156 46.4063C130.468 47.5653 129.359 48.1659 128.072 47.7208C127.217 47.4226 126.518 46.6878 125.241 45.8017ZM136.819 58.9352C135.864 59.5924 134.791 60.2201 133.686 60.4847C132.807 60.6947 131.576 60.6631 130.885 60.1844C129.399 59.1451 128.208 57.7236 128.208 55.2292C131.104 55.4413 133.848 55.5903 136.586 55.9032C136.941 55.9494 137.407 56.8229 137.457 57.3457C137.493 57.8706 137.22 58.658 136.819 58.9352ZM140.372 49.0667C140.095 49.2157 139.641 49.0351 138.362 48.9154C139.458 48.296 139.773 48.0021 140.126 47.9475C140.563 47.8656 141.027 47.9874 141.482 48.0168C141.119 48.3738 140.811 48.8357 140.372 49.0667ZM143.74 47.704C143.725 47.1329 144.561 46.5282 145.067 45.9823C145.165 45.8668 145.478 45.8479 145.644 45.9046C148.185 46.7361 148.638 44.0086 150.064 42.9902C152.359 44.334 154.416 45.5392 157.312 47.2357C154.82 48.1848 153.121 48.7727 151.458 49.4677C149.314 50.3747 147.143 50.1648 145.046 49.4929C144.449 49.2913 143.752 48.3339 143.74 47.704ZM145.237 53.814C145.075 53.7468 144.911 53.686 144.75 53.6146C144.779 53.4613 144.764 53.2282 144.855 53.1779C144.999 53.1002 145.209 53.14 145.396 53.1295C145.344 53.3584 145.296 53.5851 145.237 53.814ZM154.927 56.9362C153.068 55.794 151.082 54.8638 149.151 53.8644C149.146 53.8728 149.142 53.8792 149.138 53.8938C149.113 53.9106 149.085 53.9316 149.054 53.9505C149.388 55.0549 149.825 56.1509 149.959 57.2763C150.1 58.5026 149.043 59.0569 148.071 59.3382C147.609 59.4663 146.604 59.2102 146.534 58.9352C146.263 58.0407 145.934 56.8123 146.347 56.1719C146.94 55.2313 148.105 54.6644 149.054 53.9505C149.039 53.8938 149.02 53.8413 149.008 53.793C149.056 53.814 149.104 53.8392 149.151 53.8644C149.669 52.1804 151.036 51.6577 152.489 51.9747C155.271 52.5585 157.736 53.814 159.424 56.3945C157.925 57.6627 156.598 57.963 154.927 56.9362ZM159.401 25.4936C161.843 24.7461 161.843 24.7462 163.8 25.0443C162.698 25.9325 161.629 26.787 159.401 25.4936ZM168.596 55.7709C168.562 55.7856 168.524 55.813 168.491 55.834V55.8255C166.729 57.5388 164.885 58.7881 162.158 56.7284C163.065 56.1614 163.861 55.7247 164.577 55.1977C165.333 54.6287 166.021 53.9715 167.099 53.0497C167.676 54.2192 168.071 55.0423 168.491 55.8255C168.512 55.8066 168.541 55.7814 168.564 55.7604C168.568 55.7604 168.583 55.7646 168.596 55.7709C170.011 54.8975 171.426 54.0261 173.036 53.0371C173.61 54.0429 174.069 54.8366 174.521 55.6344C172.304 57.5325 170.458 56.0481 168.596 55.7709ZM174.334 47.5255C173.689 47.3428 173.045 47.1581 172.236 46.9397C172.711 46.3434 172.99 45.8353 173.102 45.8731C173.629 46.0326 174.13 46.3035 174.563 46.6374C174.653 46.7151 174.424 47.2168 174.334 47.5255ZM174.027 21.9011C173.771 21.4308 173.463 20.9982 173.32 20.5089C173.284 20.4082 174.082 19.8958 174.143 19.963C174.521 20.3116 174.794 20.7756 175.109 21.1997C174.813 21.3929 174.51 21.584 174.027 21.9011ZM177.166 14.1616C177.022 14.1343 176.873 14.105 176.726 14.0714C176.768 13.9055 176.784 13.7186 176.877 13.5968C176.912 13.5464 177.246 13.6389 177.259 13.6872C177.282 13.8426 177.202 14.002 177.166 14.1616ZM181.194 20.9163C180.971 21.3111 180.171 21.7645 179.833 21.6427C179.27 21.437 178.884 20.782 178.307 20.2004C178.968 19.5579 179.287 18.9678 179.713 18.8754C180.56 18.6969 181.605 20.1353 181.194 20.9163ZM185.469 13.6136L185.624 13.2609L185.798 13.6073L185.469 13.6136ZM187.157 21.8591C186.804 21.8591 186.453 21.8611 186.107 21.8338C186.094 21.8317 186.101 21.5274 186.094 21.3594C186.449 21.3657 186.8 21.3657 187.146 21.3972C187.171 21.4035 187.157 21.7205 187.157 21.8591ZM192.444 13.9159C192.568 13.8718 192.771 14.0713 192.948 14.1616C192.746 14.4514 192.551 14.7328 192.345 15.0288C192.101 14.8294 191.845 14.6362 191.595 14.4388C191.873 14.2561 192.137 14.0272 192.444 13.9159ZM190.42 22.2978C192.985 20.9667 194.684 20.0722 196.67 19.0434C198.442 20.5278 200.513 20.6391 202.688 19.5809C203.215 19.3331 203.887 19.2575 204.481 19.2911C210.343 19.5914 216.204 19.9253 222.058 20.2928C222.379 20.3116 222.669 20.7357 223.143 21.1095C222.408 22.153 221.669 23.2113 220.817 24.4396C215.901 24.2527 211.028 24.1854 206.176 23.8516C201.258 23.5135 196.202 24.2925 190.42 22.2978ZM208.166 33.3988C206.043 31.0514 206.043 31.0514 202.52 28.7229C203.625 28.7229 204.84 28.4268 205.808 28.8047C206.808 29.2058 207.727 30.1234 208.359 31.0346C208.767 31.6246 209.575 32.7458 208.166 33.3988ZM218.028 32.7102C221.373 31.5386 224.283 30.5139 227.685 29.3339C228 30.917 225.902 32.5569 228.046 33.7033C224.611 35.362 221.598 33.5291 218.028 32.7102ZM240.087 81.9811C239.678 81.8908 239.288 81.7166 238.882 81.5759C239.424 81.5759 239.955 81.5759 240.619 81.5759C240.358 81.7754 240.195 82.0021 240.087 81.9811ZM248.503 34.5705C248.007 34.3228 247.501 34.0834 247.012 33.8398C247.218 33.3611 247.396 32.7291 247.485 32.7459C248.039 32.8089 248.57 33.0335 249.12 33.2015C248.912 33.6571 248.705 34.1128 248.503 34.5705ZM291.826 15.539L291.792 15.1968L292.214 15.3311L291.826 15.539ZM296.838 31.3161C294.215 30.5056 293.594 29.7895 293.568 27.4C294.501 27.7612 295.401 28.1014 296.298 28.4478C297.178 28.7838 298.057 29.1281 299.025 29.5102C297.633 31.4524 297.528 31.5218 296.838 31.3161ZM306.822 10.9785C306.786 10.8105 306.677 10.6006 306.735 10.4914C306.794 10.3738 307.029 10.3298 307.181 10.2542C307.296 10.3823 307.399 10.5166 307.504 10.6404C307.283 10.7475 307.055 10.8651 306.822 10.9785ZM326.584 5.90989C326.405 5.8511 326.227 5.79858 326.042 5.75239C326.092 5.60121 326.134 5.45008 326.174 5.2968C326.353 5.3472 326.554 5.36191 326.701 5.47109C326.741 5.49629 326.624 5.76082 326.584 5.90989ZM379.409 16.6582C379.134 16.5763 378.857 16.4649 378.586 16.3662C378.641 16.2214 378.7 16.0829 378.756 15.9359C379.017 16.0619 379.29 16.1668 379.554 16.3054C379.567 16.3159 379.422 16.6603 379.409 16.6582ZM452.178 7.23898C451.527 6.98492 450.983 6.46837 450.418 6.03164C450.349 5.98335 450.456 5.54453 450.498 5.54453C451.382 5.51933 452.295 5.40391 453.133 5.60758C453.467 5.68317 453.641 6.45582 454.024 7.17811C453.219 7.2222 452.631 7.41115 452.178 7.23898ZM458.937 17.7836C458.798 17.7206 458.586 17.7017 458.54 17.6093C458.496 17.5211 458.626 17.3469 458.664 17.2104C458.798 17.2608 458.996 17.2902 459.054 17.3804C459.105 17.4665 458.989 17.6429 458.937 17.7836ZM460.255 12.2342C459.85 11.7428 459.43 11.2221 459.008 10.7035C459.31 10.504 459.758 10.0736 459.89 10.1555C460.47 10.5041 460.952 11.01 461.471 11.4531C461.171 11.6399 460.868 11.8331 460.255 12.2342ZM464.129 23.8726C464.01 23.7802 463.995 23.5409 463.93 23.3687C464.06 23.2511 464.19 23.1273 464.318 23.0055C464.421 23.268 464.526 23.5409 464.625 23.8117C464.455 23.8306 464.224 23.9419 464.129 23.8726ZM463.092 16.5448C463.682 15.075 464.096 14.0546 464.77 12.3917C465.696 14.3024 466.269 15.4886 467.044 17.0802C465.698 16.8996 464.612 16.7484 463.092 16.5448ZM475.329 3.31887C475.472 3.07741 476.526 3.08796 476.941 3.34412C477.754 3.86274 478.426 4.63543 479.348 5.4816C478.111 5.87634 477.168 6.32776 476.186 6.43904C475.751 6.48733 474.896 5.91201 474.85 5.53197C474.754 4.82018 474.966 3.95508 475.329 3.31887ZM489.964 13.116C489.33 13.5947 488.517 13.8257 487.822 14.1428C486.264 13.4037 484.817 12.7192 483.049 11.873C481.498 13.4982 479.742 13.9684 479.119 15.8728C478.51 17.7353 477.962 17.7185 474.575 16.7463C474.334 15.3963 474.088 14.0503 473.813 12.5217C471.957 12.3328 470.344 12.295 468.782 11.9885C467.82 11.7911 466.886 11.2284 467.432 10.0609C470.55 9.90346 473.548 9.72924 476.561 9.61585C477.345 9.57806 478.254 9.47305 478.898 9.8027C481.057 10.9134 483.268 10.4557 485.496 10.378C486.888 10.3234 488.309 10.4431 489.678 10.7013C490.717 10.8882 490.898 12.4336 489.964 13.116ZM492.91 13.7186C492.874 13.5422 492.84 13.3764 492.8 13.2021C493.096 13.1622 493.386 13.0993 493.676 13.1077C493.72 13.1077 493.756 13.4268 493.796 13.6011C493.497 13.6431 493.206 13.6808 492.91 13.7186ZM963.065 3.34412C963.481 3.08796 964.541 3.07741 964.682 3.31887C965.045 3.95508 965.253 4.82018 965.16 5.53197C965.112 5.91201 964.258 6.48733 963.825 6.43904C962.842 6.32776 961.897 5.87634 960.657 5.4816C961.578 4.63543 962.259 3.86274 963.065 3.34412ZM947.103 13.7186C946.801 13.6787 946.513 13.6431 946.215 13.6011C946.261 13.4268 946.289 13.1077 946.337 13.1077C946.624 13.0993 946.91 13.1622 947.206 13.2021C947.166 13.3764 947.137 13.5422 947.103 13.7186ZM971.222 11.9905C969.656 12.2971 968.045 12.335 966.191 12.5239C965.916 14.0525 965.673 15.3983 965.425 16.7484C962.038 17.7205 961.496 17.7374 960.881 15.875C960.264 13.9706 958.509 13.5002 956.959 11.8751C955.189 12.7213 953.736 13.4057 952.186 14.1448C951.485 13.8278 950.681 13.5947 950.043 13.118C949.11 12.4357 949.293 10.8882 950.33 10.7055C951.695 10.4473 953.119 10.3255 954.509 10.3822C956.741 10.4599 958.943 10.9198 961.106 9.80693C961.75 9.47728 962.658 9.58439 963.447 9.62008C966.458 9.73346 969.452 9.90769 972.57 10.0652C973.124 11.2305 972.19 11.7932 971.222 11.9905ZM975.875 23.8726C975.778 23.9419 975.554 23.8285 975.386 23.8117C975.489 23.5409 975.587 23.268 975.69 23.0055C975.816 23.1273 975.948 23.2511 976.081 23.3687C976.016 23.5409 976.005 23.7802 975.875 23.8726ZM972.969 17.0822C973.746 15.4886 974.313 14.3044 975.239 12.3937C975.915 14.0546 976.326 15.0751 976.912 16.5469C975.394 16.7485 974.311 16.8996 972.969 17.0822ZM978.537 11.4531C979.052 11.01 979.535 10.5041 980.121 10.1555C980.249 10.0736 980.694 10.504 981 10.7035C980.585 11.2221 980.152 11.7428 979.753 12.2342C979.142 11.8331 978.84 11.6399 978.537 11.4531ZM981.072 17.7836C981.021 17.645 980.904 17.4686 980.954 17.3804C981.009 17.2902 981.212 17.2608 981.349 17.2104C981.383 17.3469 981.517 17.5211 981.473 17.6093C981.42 17.7017 981.212 17.7206 981.072 17.7836ZM989.594 6.03164C989.025 6.46837 988.477 6.98492 987.829 7.23898C987.375 7.41115 986.789 7.2201 985.983 7.17811C986.365 6.45582 986.537 5.68317 986.871 5.60758C987.709 5.40181 988.622 5.51933 989.512 5.54453C989.548 5.54453 989.659 5.98335 989.594 6.03164ZM1060.6 16.6582C1060.59 16.6603 1060.44 16.3159 1060.45 16.3054C1060.72 16.1689 1060.99 16.0619 1061.25 15.9359C1061.31 16.0829 1061.37 16.2214 1061.43 16.3662C1061.16 16.4649 1060.88 16.5763 1060.6 16.6582ZM1113.42 5.90989C1113.38 5.76082 1113.26 5.49629 1113.3 5.47109C1113.45 5.36191 1113.65 5.3472 1113.83 5.2968C1113.87 5.44798 1113.92 5.60121 1113.96 5.75239C1113.78 5.80068 1113.6 5.8511 1113.42 5.90989ZM1133.18 10.9785C1132.95 10.8651 1132.73 10.7497 1132.5 10.6384C1132.61 10.5145 1132.71 10.3801 1132.83 10.252C1132.98 10.3276 1133.21 10.3739 1133.27 10.4894C1133.33 10.6006 1133.22 10.8084 1133.18 10.9785ZM1143.17 31.3161C1142.48 31.5218 1142.38 31.4524 1140.98 29.5102C1141.95 29.1281 1142.83 28.7838 1143.71 28.4478C1144.61 28.1014 1145.51 27.7612 1146.44 27.4C1146.42 29.7916 1145.8 30.5056 1143.17 31.3161ZM1148.18 15.539L1147.79 15.3311L1148.21 15.1968L1148.18 15.539ZM1191.51 34.5705C1191.3 34.1128 1191.09 33.6571 1190.88 33.2015C1191.44 33.0335 1191.97 32.8089 1192.52 32.7459C1192.61 32.7291 1192.79 33.3632 1192.99 33.8398C1192.51 34.0813 1192 34.3228 1191.51 34.5705ZM1199.93 81.9811C1199.82 82.0021 1199.65 81.7754 1199.39 81.5759C1200.05 81.5759 1200.59 81.5759 1201.13 81.5759C1200.72 81.7166 1200.33 81.8908 1199.93 81.9811ZM1247.57 13.9159C1247.87 14.0272 1248.14 14.2561 1248.42 14.4388C1248.16 14.6383 1247.91 14.8315 1247.66 15.0288C1247.46 14.7328 1247.27 14.4514 1247.07 14.1616C1247.23 14.0713 1247.44 13.8718 1247.57 13.9159ZM1211.97 33.7033C1214.1 32.5569 1212.01 30.917 1212.32 29.3339C1215.73 30.516 1218.64 31.5407 1221.98 32.7102C1218.41 33.5291 1215.39 35.362 1211.97 33.7033ZM1231.84 33.3988C1230.43 32.7458 1231.24 31.6225 1231.65 31.0346C1232.27 30.1255 1233.19 29.2058 1234.2 28.8047C1235.17 28.4268 1236.38 28.7229 1237.49 28.7229C1233.96 31.0514 1233.96 31.0514 1231.84 33.3988ZM1233.84 23.8495C1228.98 24.1834 1224.12 24.2506 1219.19 24.4375C1218.34 23.2092 1217.6 22.151 1216.87 21.1074C1217.34 20.7337 1217.64 20.3095 1217.95 20.2906C1223.81 19.9231 1229.67 19.5893 1235.53 19.289C1236.12 19.2534 1236.79 19.331 1237.33 19.5788C1239.5 20.637 1241.57 20.5258 1243.34 19.0413C1245.33 20.0702 1247.03 20.9646 1249.6 22.2958C1243.81 24.2926 1238.75 23.5136 1233.84 23.8495ZM1253.91 21.836C1253.56 21.8633 1253.21 21.8611 1252.85 21.8611C1252.85 21.7225 1252.83 21.4034 1252.85 21.3992C1253.21 21.3677 1253.56 21.3677 1253.91 21.3614C1253.91 21.5294 1253.91 21.8318 1253.91 21.836ZM1254.22 13.6073L1254.38 13.2609L1254.53 13.6136L1254.22 13.6073ZM1260.18 21.6427C1259.84 21.7666 1259.04 21.3111 1258.82 20.9163C1258.41 20.1353 1259.46 18.6969 1260.3 18.8754C1260.72 18.9678 1261.04 19.5579 1261.71 20.2004C1261.13 20.782 1260.74 21.437 1260.18 21.6427ZM1262.84 14.1616C1262.8 14.002 1262.72 13.8426 1262.75 13.6872C1262.76 13.6389 1263.09 13.5464 1263.13 13.5968C1263.23 13.7186 1263.24 13.9034 1263.28 14.0714C1263.13 14.105 1262.99 14.1343 1262.84 14.1616ZM1308.11 32.666C1307.93 32.6744 1307.75 32.6955 1307.57 32.706C1307.53 32.6052 1307.51 32.5002 1307.48 32.3973C1307.69 32.4876 1307.91 32.5736 1308.11 32.666ZM1287.16 20.5047C1289.36 20.9205 1291.52 21.5042 1294.5 22.2097C1293.71 23.438 1293.29 24.0763 1292.92 24.6474C1291.39 24.1708 1290.08 23.7866 1288.77 23.3499C1287.67 22.9866 1286.56 22.5583 1285.59 22.1971C1285.6 20.7756 1286.32 20.3367 1287.16 20.5047ZM1293.51 38.5515L1293.12 38.6229L1293.32 38.2617L1293.51 38.5515ZM1292.88 33.1406C1291.83 35.4376 1290.95 37.3483 1289.75 39.9603C1288.69 37.764 1287.87 36.055 1286.96 34.1946C1288.85 32.6283 1290.8 33.317 1292.88 33.1406ZM1275.68 21.2775C1277.16 21.2775 1278.64 21.2775 1280.13 21.2775C1280.08 21.4434 1280.03 21.6155 1279.98 21.7751C1278.53 21.7751 1277.1 21.7751 1275.66 21.7751C1275.67 21.6155 1275.68 21.4434 1275.68 21.2775ZM1275.57 33.9028C1276 34.4698 1276.35 34.9673 1276.73 35.4691C1276.44 35.6203 1276.06 35.9647 1275.88 35.8765C1275.41 35.6645 1275.02 35.2718 1274.61 34.9422C1274.83 34.6923 1275.06 34.4467 1275.57 33.9028ZM1276.64 40.4328C1276.59 40.584 1276.54 40.7414 1276.5 40.8884C1276.24 40.7477 1275.98 40.626 1275.76 40.4475C1275.72 40.4118 1275.83 40.164 1275.88 40.0171C1276.13 40.1577 1276.39 40.2963 1276.64 40.4328ZM1272.92 46.3539C1273.2 46.4694 1273.3 46.9649 1273.47 47.2903C1273.12 47.4226 1272.76 47.5423 1272.39 47.6725C1272.25 47.368 1272.1 47.0678 1271.96 46.7696C1272.29 46.6122 1272.7 46.2573 1272.92 46.3539ZM1271.72 21.5399C1271.57 21.6155 1271.41 21.7415 1271.26 21.7205C1271.14 21.7016 1271.04 21.5231 1270.92 21.4118C1271.18 21.458 1271.45 21.5022 1271.72 21.5399ZM1270.16 33.9342C1270.28 33.9342 1270.4 34.539 1270.58 35.0073C1269.98 35.0598 1269.43 35.1689 1268.88 35.129C1268.78 35.1185 1268.7 34.5474 1268.62 34.2325C1269.13 34.1128 1269.65 33.9342 1270.16 33.9342ZM1265.86 19.963C1265.92 19.8958 1266.72 20.4082 1266.68 20.5089C1266.54 20.9982 1266.23 21.4308 1265.99 21.9011C1265.5 21.5861 1265.2 21.3929 1264.9 21.1997C1265.21 20.7756 1265.49 20.3116 1265.86 19.963ZM1266.9 45.8731C1267.02 45.8332 1267.3 46.3434 1267.77 46.9397C1266.96 47.1581 1266.32 47.3428 1265.68 47.5255C1265.59 47.2189 1265.36 46.7151 1265.44 46.6374C1265.87 46.3035 1266.38 46.0326 1266.9 45.8731ZM1271.52 55.8255V55.834C1271.48 55.8109 1271.45 55.7856 1271.42 55.7709C1269.55 56.0481 1267.7 57.5346 1265.49 55.6365C1265.94 54.8386 1266.4 54.0428 1266.97 53.0392C1268.59 54.0281 1270 54.8975 1271.42 55.7709C1271.43 55.7646 1271.44 55.7625 1271.45 55.7625C1271.47 55.7814 1271.49 55.8066 1271.52 55.8255C1271.94 55.0423 1272.33 54.2171 1272.91 53.0497C1273.99 53.9736 1274.68 54.6308 1275.43 55.1977C1276.15 55.7247 1276.94 56.1614 1277.85 56.7284C1275.12 58.7881 1273.28 57.5388 1271.52 55.8255ZM1276.21 25.0443C1278.16 24.7462 1278.16 24.7461 1280.61 25.4936C1278.37 26.787 1277.31 25.9325 1276.21 25.0443ZM1293.48 58.9352C1293.4 59.2123 1292.4 59.4684 1291.94 59.3382C1290.97 59.0548 1289.9 58.5026 1290.05 57.2763C1290.18 56.1509 1290.62 55.0549 1290.95 53.9505C1290.92 53.9295 1290.9 53.9085 1290.87 53.8938C1290.87 53.8792 1290.86 53.8728 1290.86 53.8644C1288.93 54.8638 1286.95 55.794 1285.09 56.9362C1283.41 57.9609 1282.08 57.6627 1280.59 56.3945C1282.28 53.814 1284.74 52.5585 1287.52 51.9747C1288.97 51.6598 1290.34 52.1825 1290.86 53.8644C1290.91 53.8392 1290.96 53.814 1291.01 53.793C1291 53.8413 1290.97 53.8938 1290.95 53.9505C1291.9 54.6644 1293.07 55.2292 1293.66 56.1719C1294.08 56.8144 1293.75 58.0428 1293.48 58.9352ZM1294.77 53.814C1294.72 53.5851 1294.66 53.3584 1294.61 53.1295C1294.79 53.14 1295.01 53.1002 1295.15 53.1779C1295.24 53.2282 1295.23 53.4613 1295.26 53.6146C1295.09 53.686 1294.93 53.7468 1294.77 53.814ZM1294.96 49.4929C1292.86 50.1648 1290.69 50.3747 1288.54 49.4677C1286.89 48.7727 1285.19 48.1848 1282.69 47.2357C1285.59 45.5371 1287.65 44.3319 1289.94 42.9902C1291.37 44.0065 1291.82 46.7361 1294.36 45.9046C1294.52 45.8479 1294.83 45.8668 1294.94 45.9823C1295.45 46.5282 1296.28 47.1329 1296.27 47.704C1296.26 48.3339 1295.56 49.2913 1294.96 49.4929ZM1299.64 49.0667C1299.2 48.8357 1298.89 48.3738 1298.52 48.0168C1298.98 47.9853 1299.45 47.8656 1299.88 47.9475C1300.23 48.0021 1300.54 48.296 1301.65 48.9154C1300.37 49.0372 1299.91 49.2157 1299.64 49.0667ZM1309.13 60.1866C1308.43 60.6653 1307.2 60.6946 1306.32 60.4867C1305.22 60.2222 1304.14 59.5923 1303.19 58.9372C1302.79 58.658 1302.52 57.8705 1302.55 57.3477C1302.6 56.827 1303.07 55.9536 1303.42 55.9054C1306.16 55.5925 1308.91 55.4412 1311.8 55.2313C1311.8 57.7257 1310.61 59.1473 1309.13 60.1866ZM1311.94 47.7208C1310.65 48.1659 1309.54 47.5653 1308.85 46.4063C1308.72 46.1838 1308.92 45.4825 1309.12 45.3985C1310.24 44.9471 1311.4 44.4389 1312.57 44.3172C1313.1 44.2605 1313.72 45.0584 1314.77 45.8017C1313.49 46.6878 1312.79 47.4226 1311.94 47.7208ZM1319.3 57.3835C1319.14 57.3919 1318.99 57.3016 1318.83 57.2512C1318.87 57.1189 1318.91 56.8858 1318.98 56.8816C1319.12 56.8648 1319.3 56.9573 1319.46 57.0056C1319.41 57.1336 1319.36 57.3793 1319.3 57.3835ZM1337.84 56.0544C1337.63 55.8801 1337.41 55.71 1337.18 55.5378C1337.28 55.4034 1337.39 55.2733 1337.49 55.141C1337.7 55.3258 1337.93 55.4937 1338.13 55.6848C1338.14 55.7037 1337.94 55.9263 1337.84 56.0544ZM1348.95 55.7857C1348.85 55.4518 1348.81 55.2817 1348.75 55.1137C1348.9 55.0781 1349.05 55.0382 1349.2 54.992C1349.13 55.2125 1349.06 55.4308 1348.95 55.7857ZM1410.29 84.232C1411.96 82.378 1413.5 82.4431 1415.74 83.0163C1413.98 84.6625 1412.51 84.9459 1410.29 84.232ZM1421.47 51.2272C1421.31 51.2692 1421.15 51.3112 1420.99 51.3637C1420.99 51.2482 1420.95 51.0571 1421 51.0361C1421.15 50.9669 1421.33 50.9605 1421.5 50.9395C1421.49 51.0361 1421.48 51.1285 1421.47 51.2272Z" fill="#101010"/>
<path fill-rule="evenodd" clip-rule="evenodd" d="M424.901 8.41708C424.96 8.39818 425.029 8.41701 425.086 8.39811C425.067 8.36452 425.048 8.31416 425.023 8.27637L424.901 8.41708Z" fill="#101010"/>
</svg>
