<svg width="26" height="26" viewBox="0 0 26 26" fill="none" xmlns="http://www.w3.org/2000/svg">
<g clip-path="url(#clip0_321_368)">
<path d="M24.7866 18.2221L19.3179 15.874C19.0843 15.7742 18.8246 15.7532 18.578 15.8141C18.3315 15.875 18.1113 16.0144 17.9507 16.2115L15.5288 19.176C11.7279 17.3806 8.66904 14.316 6.87695 10.5081L9.83594 8.08169C10.033 7.92108 10.1726 7.70051 10.2333 7.45336C10.2941 7.20621 10.2729 6.94594 10.1729 6.71197L7.8291 1.23305C7.71929 0.98083 7.52508 0.774899 7.27996 0.650769C7.03483 0.526639 6.75416 0.49209 6.48633 0.553079L1.4082 1.72713C1.14998 1.78687 0.919602 1.93253 0.754656 2.14034C0.58971 2.34815 0.499941 2.60584 0.5 2.87134C0.5 15.419 10.6514 25.5697 23.1562 25.5697C23.4213 25.5699 23.6787 25.48 23.8862 25.3147C24.0937 25.1495 24.2392 24.9186 24.2988 24.6598L25.4707 19.5723C25.5312 19.3026 25.496 19.0203 25.3711 18.7739C25.2463 18.5274 25.0396 18.3323 24.7866 18.2221Z" fill="white"/>
</g>
<defs>
<clipPath id="clip0_321_368">
<rect width="25" height="25.0465" fill="white" transform="translate(0.5 0.523193)"/>
</clipPath>
</defs>
</svg>
