<svg width="50" height="53" viewBox="0 0 50 53" fill="none" xmlns="http://www.w3.org/2000/svg">
<g clip-path="url(#clip0_190_1162)">
<path fill-rule="evenodd" clip-rule="evenodd" d="M36.2792 6.3964L18.4336 17.3734H23.5086L36.684 9.26896L38.6185 8.07853L44.1964 17.3734H47.4433C48.1507 17.3734 48.7898 17.6667 49.2543 18.1325C49.7188 18.6026 50.0085 19.2496 50.0085 19.9613V50.4078C50.0085 51.1195 49.7188 51.7664 49.2586 52.2323V52.2366C48.7941 52.7067 48.1549 52.9957 47.4476 52.9957H2.5652C1.85785 52.9957 1.21868 52.7067 0.754218 52.2366V52.2323C0.289756 51.7664 0 51.1195 0 50.4121V19.9613C0 19.2496 0.289756 18.5983 0.749957 18.1325C1.21442 17.6624 1.85359 17.3734 2.56093 17.3734H3.62621L31.332 0.332113C31.6857 0.116455 32.0862 0 32.4996 0C32.6785 0 32.8575 0.0215658 33.0322 0.0646973C33.6117 0.207031 34.1145 0.577962 34.4213 1.09554L37.2465 5.80119L36.2792 6.3964ZM2.5098 19.6766C2.41179 19.7844 2.33083 19.9052 2.27118 20.0389V23.787H47.7288V19.9613C47.7288 19.8793 47.699 19.806 47.6479 19.7585H47.6436C47.5925 19.7068 47.52 19.6723 47.4391 19.6723H2.56093C2.54389 19.6723 2.52684 19.6723 2.5098 19.6766ZM6.80927 36.5367H14.9267V39.612H6.80927V36.5367ZM6.80927 43.8173H29.4997V46.5907H6.80927V43.8173ZM36.7351 36.5367H44.8526V39.612H36.7351V36.5367ZM26.7598 36.5367H34.8773V39.612H26.7598V36.5367ZM16.7846 36.5367H24.902V39.612H16.7846V36.5367ZM47.7288 32.409H2.27118V50.4078C2.27118 50.4897 2.30101 50.5631 2.3564 50.6148H2.36066C2.41606 50.6709 2.4885 50.7011 2.56093 50.7011H47.4433C47.52 50.7011 47.5925 50.6666 47.6479 50.6148C47.7033 50.5588 47.7331 50.4854 47.7331 50.4078V32.409H47.7288Z" fill="white"/>
</g>
<defs>
<clipPath id="clip0_190_1162">
<rect width="50" height="53" fill="white"/>
</clipPath>
</defs>
</svg>
