<svg width="50" height="50" viewBox="0 0 50 50" fill="none" xmlns="http://www.w3.org/2000/svg">
<g clip-path="url(#clip0_190_1190)">
<path fill-rule="evenodd" clip-rule="evenodd" d="M6.66053 49.7682L4.80913 47.9168C4.73581 47.8445 4.67758 47.7584 4.63784 47.6634C4.5981 47.5684 4.57764 47.4664 4.57764 47.3635C4.57764 47.2605 4.5981 47.1585 4.63784 47.0635C4.67758 46.9685 4.73581 46.8824 4.80913 46.8101L48.6242 4.80568C48.7749 4.66494 48.9735 4.58667 49.1797 4.58667C49.3859 4.58667 49.5844 4.66494 49.7351 4.80568L49.7717 4.8423C49.9124 4.993 49.9907 5.19152 49.9907 5.39772C49.9907 5.60392 49.9124 5.80243 49.7717 5.95314L7.7673 49.7682C7.695 49.8416 7.60884 49.8998 7.51384 49.9395C7.41884 49.9793 7.31689 49.9997 7.21391 49.9997C7.11094 49.9997 7.00899 49.9793 6.91399 49.9395C6.81899 49.8998 6.73283 49.8416 6.66053 49.7682ZM2.08289 45.1906L0.231493 43.3392C0.15817 43.2669 0.0999458 43.1807 0.0602053 43.0857C0.0204648 42.9907 0 42.8888 0 42.7858C0 42.6828 0.0204648 42.5809 0.0602053 42.4859C0.0999458 42.3909 0.15817 42.3047 0.231493 42.2324L44.0466 0.228039C44.1973 0.0873078 44.3958 0.0090332 44.602 0.0090332C44.8082 0.0090332 45.0067 0.0873078 45.1574 0.228039L45.1941 0.26466C45.3348 0.415369 45.4131 0.61388 45.4131 0.82008C45.4131 1.02628 45.3348 1.22479 45.1941 1.3755L3.18966 45.1906C3.11736 45.2639 3.03121 45.3221 2.93621 45.3619C2.84121 45.4016 2.73926 45.4221 2.63628 45.4221C2.5333 45.4221 2.43135 45.4016 2.33635 45.3619C2.24135 45.3221 2.1552 45.2639 2.08289 45.1906ZM16.3855 27.3846L27.0707 17.1429L28.2914 18.3636L18.0375 29.0366L16.3855 27.3846ZM20.9631 31.9622L31.6483 21.7206L32.869 22.9413L22.6151 33.6143L20.9631 31.9622Z" fill="white"/>
</g>
<defs>
<clipPath id="clip0_190_1190">
<rect width="50" height="50" fill="white"/>
</clipPath>
</defs>
</svg>
