<svg width="50" height="27" viewBox="0 0 50 27" fill="none" xmlns="http://www.w3.org/2000/svg">
<g clip-path="url(#clip0_190_1142)">
<path fill-rule="evenodd" clip-rule="evenodd" d="M4.2273 12.3202L4.15405 12.3579C4.17033 12.3956 4.18254 12.4334 4.19067 12.4753C5.66366 19.1697 8.75203 19.8614 14.0417 21.0393C14.7538 21.1986 15.5066 21.3663 16.3326 21.5675L30.8061 25.0635C33.0033 25.5037 35.1274 25.5791 37.0805 25.1977C38.4029 24.9378 39.6521 24.4725 40.7914 23.7724C37.0235 23.7934 34.3054 22.8502 30.6067 21.2615C24.6456 18.7044 20.5115 15.2838 15.6287 13.1208C12.0235 11.5237 8.28817 10.7985 4.2273 12.3202ZM2.74211 12.928C1.18368 13.4226 0.121663 13.1753 0.00366215 11.5405C-0.0899251 9.74635 0.813395 8.00672 2.68921 6.32577C14.1109 -3.92342 33.2882 -1.26576 42.3132 11.0794C45.0802 14.8688 46.8543 18.2182 49.9996 22.1544C48.7504 22.8251 47.4849 23.282 46.191 23.4748C45.8533 23.5251 44.5593 23.609 43.184 23.6844C43.1515 23.8605 43.0619 24.0281 42.9155 24.1455C41.2716 25.4995 39.3917 26.3379 37.3612 26.7319C35.2128 27.1511 32.8975 27.0757 30.5172 26.5978L15.9908 23.0808C15.2218 22.8963 14.4527 22.7245 13.7203 22.561C7.86906 21.2573 4.43888 20.486 2.74211 12.928ZM17.4963 4.72027C20.2063 3.65972 22.9651 3.07705 25.0606 3.37048C23.5347 4.37653 21.8827 5.28198 19.9337 6.07844C19.9377 8.10313 19.6977 10.5889 19.2582 12.5885C18.892 9.95176 18.3671 6.90844 17.4963 4.72027ZM33.6462 12.5507C36.4376 11.7459 39.2371 11.4231 41.3001 11.9094C39.6928 12.7729 37.9675 13.5149 35.9574 14.1269C35.7825 16.1432 35.3267 18.5954 34.7123 20.5489C34.578 17.8912 34.3217 14.8144 33.6462 12.5507ZM26.0046 7.91869C28.796 7.11384 31.5955 6.79107 33.6585 7.27733C32.0512 8.14086 30.3259 8.88282 28.3158 9.49484C28.1409 11.5111 27.6851 13.9634 27.0707 15.9168C26.9324 13.2592 26.676 10.1823 26.0046 7.91869Z" fill="white"/>
</g>
<defs>
<clipPath id="clip0_190_1142">
<rect width="50" height="27" fill="white"/>
</clipPath>
</defs>
</svg>
