<svg xmlns="http://www.w3.org/2000/svg" width="1440" height="90" viewBox="0 0 1440 90" fill="none"><path fill-rule="evenodd" clip-rule="evenodd" d="M425.018 81.1315C425.039 81.0937 425.054 81.0433 425.077 81.0097C425.018 80.9908 424.945 81.0097 424.888 80.9908L425.018 81.1315Z" fill="#101010"></path><path fill-rule="evenodd" clip-rule="evenodd" d="M5.32679 84.3188C5.52626 84.3398 5.75719 84.342 5.92937 84.2622C9.48622 82.7378 13.2153 83.7162 16.8645 83.5042C19.5143 83.353 22.1663 83.2081 24.8224 83.0632C26.8506 82.9519 28.8747 82.742 30.903 82.7126C40.9038 82.5719 50.9108 84.1887 60.9116 82.5845C61.4848 82.4984 62.1083 82.7272 62.7067 82.8175C67.7565 83.5923 72.7873 84.4889 77.858 85.1335C85.7633 86.1414 93.6917 87.0946 101.639 87.8588C104.473 88.1213 107.384 87.9282 110.222 87.6909C113.687 87.3949 117.137 86.8595 120.578 86.3576C132.937 84.5666 145.348 83.2417 157.803 82.3514C163.29 81.9546 168.808 82.1729 174.231 80.8207C175.556 80.489 177.435 80.2665 178.403 80.9447C181.492 83.1325 184.855 82.7777 188.782 82.7714C187.688 82.553 187.056 82.553 186.55 82.3073C186.071 82.0512 185.416 81.5556 185.395 81.1378C185.378 80.699 185.922 80.0564 186.382 79.8045C186.869 79.5294 187.585 79.6954 188.164 79.5211C191.4 78.5259 194.64 80.1446 197.85 79.5252C201.523 78.8092 205.159 79.1536 208.823 79.6218C210.182 79.7877 211.591 79.6449 212.848 79.6449C213.594 77.7762 212.865 76.7579 211.412 76.8272C207.946 77.012 204.571 76.9679 200.441 74.6834C204.836 75.496 208.141 73.4194 211.647 74.7631C212.313 75.0277 213.26 74.7338 214.045 74.5259C218.259 73.3816 222.549 73.812 226.818 73.9023C227.76 73.9233 228.806 74.1584 228.617 75.813C227.017 76.067 225.402 76.2392 223.842 76.6004C222.351 76.9426 220.458 76.1993 219.378 78.1919C219.834 78.5635 220.22 79.1011 220.728 79.246C223.256 79.9851 226.032 78.9583 228.525 80.2685C228.776 80.4155 229.314 79.9095 229.669 79.9662C230.395 80.0985 231.452 80.2077 231.722 80.699C232.997 82.8931 234.931 82.7903 237.058 82.7693C242.67 82.7105 248.238 81.3226 254.092 78.2928C253.905 75.7626 250.447 77.9169 250.103 75.3784C250.999 75.0467 251.894 74.717 253.068 74.295C252.984 73.0079 252.889 71.641 252.805 70.1523C244.341 68.3655 235.98 68.7875 227.75 68.397C226.904 67.0154 226.19 65.8627 225.255 64.3341C227.025 63.8239 228.314 63.4502 229.551 63.0974C229.883 62.0539 230.189 61.1216 230.42 60.3951C233.005 59.2844 235.136 60.1453 237.335 60.6135C239.758 61.1237 239.842 60.9998 241.501 58.3542C241.7 58.0413 242.048 57.823 242.433 57.4556C242.785 58.4004 243.107 59.2948 243.455 60.2397C245.656 60.4581 247.848 60.6765 250.267 60.9221C251.094 59.3705 251.808 57.928 252.612 56.5401C254.048 54.0331 255.417 53.3549 258.098 53.7896C260.255 54.1423 262.397 54.5517 264.639 54.9549C264.639 56.2336 264.542 57.2665 264.66 58.2723C264.79 59.3263 263.089 60.307 264.685 61.571C266.046 60.3573 267.362 59.1731 268.725 57.9574C268.049 56.5821 267.478 55.4357 266.816 54.0898C272.122 52.5214 276.431 53.2269 279.887 57.2939L279.721 57.4283C283.966 55.7044 283.966 55.7044 286.935 58.7951C286.627 59.7043 286.31 60.6366 285.932 61.7452C287.773 62.4129 289.564 63.0617 291.75 63.8512C290.853 64.6008 290.427 65.2684 289.971 65.2873C287.557 65.3734 285.037 65.6822 282.732 65.1677C279.626 64.479 277.147 64.985 274.89 67.2632C275.425 68.0317 275.952 68.8001 276.794 70.0263C274.873 70.2132 273.329 70.5093 271.788 70.4883C269.951 70.4568 268.122 70.06 266.285 69.9907C264.303 69.9067 263.543 70.8766 263.789 73.1779C263.862 73.8666 264.362 74.5112 264.637 75.1117C266.875 74.2404 268.725 73.518 270.613 72.7894C271.7 73.8162 272.479 74.7758 273.468 75.4162C275.931 77.0288 278.864 75.7396 278.77 72.9281C278.742 72.0294 278.904 71.1245 278.975 70.2216C279.221 70.1901 279.482 70.1523 279.729 70.1229C280.662 72.2079 281.588 74.3012 282.488 76.3253C283.269 76.4471 283.91 76.7138 284.47 76.6025C288.619 75.7165 292.888 77.5684 297.041 76.0713C297.448 75.9265 298.65 76.7705 298.748 77.2933C298.864 77.8518 298.24 78.8008 297.673 79.1641C296.919 79.6701 295.903 79.7835 294.171 80.3336C297.669 80.9509 300.252 81.6859 302.868 81.8287C308.77 82.1415 314.702 82.1478 320.616 82.3263C320.933 82.3305 321.242 82.7314 321.63 82.996C321.63 83.7393 321.63 84.533 321.63 85.44C325.107 86.7964 328.614 87.779 332.368 87.672C335.965 87.5691 339.614 88.8877 343.163 87.3151C346.614 88.346 350.064 87.4368 353.524 87.3696C354.497 87.3444 355.456 87.8147 356.447 87.9407C360.689 88.4803 364.934 89.022 369.188 89.4063C369.747 89.4483 370.868 88.5833 370.878 88.134C370.893 87.4978 370.217 86.5381 369.604 86.3008C368.751 85.9481 367.676 86.1477 366.704 86.0784C365.352 85.9734 363.914 85.9943 363.221 83.8568C367.655 83.6112 371.85 83.3865 376.014 83.1618C376.165 80.6653 376.165 80.6653 379.315 76.2602C381.511 76.0671 383.756 75.9264 385.983 75.6576C388.209 75.391 390.414 74.8976 392.65 74.6666C394.697 74.4588 396.86 75.0928 399.675 73.6734C397.572 73.3543 396.383 73.1212 395.184 73.0078C394.298 72.928 393.576 72.7999 393.95 71.3071C395.004 71.1538 396.182 70.9942 397.351 70.8032C398.72 70.5743 400.068 70.3245 401.303 70.0999C401.303 68.9534 401.303 68.1806 401.303 67.431C406.718 66.8263 406.718 66.8263 410.991 63.1603C412.03 64.2437 413.09 65.3546 414.346 66.6564C415.694 65.5414 416.763 64.6449 417.838 63.7462C419.081 62.7027 420.387 62.5095 421.747 63.5068C422.709 64.2123 423.637 64.9619 424.311 65.4805C426.469 64.9073 428.42 63.7273 429.93 64.1367C432.953 64.9577 435.546 63.7587 438.305 63.259C439.895 65.0647 441.533 65.8311 443.714 64.3844C444.487 63.8679 445.637 63.6936 446.145 65.2432C445.734 65.598 445.35 66.2008 444.852 66.3162C440.306 67.3283 435.746 68.271 430.812 69.304C430.86 70.2426 430.925 71.3428 431.011 72.9637C432.286 71.7732 433.121 71.0005 433.93 70.2467C435.643 70.5449 437.243 70.8578 438.845 71.1034C440.558 71.3512 442.461 70.4903 444.157 71.8488C443.664 73.5474 441.919 73.0373 441.257 73.8414C440.417 74.864 439.97 76.214 439.525 77.1022C436.985 77.0245 434.721 77.3752 432.71 76.7936C430.058 76.0398 428.638 78.2466 426.541 78.7232C425.917 78.8702 425.543 80.153 425.084 81.0013C426.742 81.2322 428.632 80.4806 429.867 82.4941C430.627 83.733 431.979 83.395 433.201 83.015C433.99 82.7903 434.83 82.5635 435.141 83.7981C434.081 85.7151 432.281 84.6233 430.795 84.8269C429.875 84.9508 428.674 84.6295 428.468 86.5297C432.174 86.8636 435.91 88.3901 438.965 84.596C441.226 84.8375 443.699 84.5308 445.642 85.398C450.618 87.6089 455.714 86.4793 460.763 86.6767C461.498 86.704 462.294 86.2085 462.989 85.8179C463.239 85.6836 463.266 85.1461 463.518 84.4259C462.221 83.8737 460.898 83.3005 458.571 82.299C461.328 81.8643 462.914 80.6716 464.776 81.5703C465.639 81.9881 466.315 82.8112 467.134 83.3592C467.898 83.8568 469.204 82.9183 469.691 84.0941C469.378 84.9214 469.118 85.6017 468.935 86.0678C470.947 86.7733 472.599 87.4474 474.298 87.9261C476.249 88.472 478.214 88.8982 480.206 89.2321C480.715 89.3077 481.317 88.8372 481.945 88.5916C482.556 87.0945 483.154 85.6164 483.694 84.26C489.027 82.4417 494.526 84.5372 499.523 82.6496C499.805 72.5334 504.424 70.1754 512.329 67.8196C511.032 66.501 508.703 68.2815 507.385 66.0075C508.898 65.2348 510.282 64.5126 511.641 63.8134C513.297 65.8585 515.128 66.1713 517.32 65.6737C520.293 64.9913 523.298 64.5021 526.294 64.0485C526.567 64.0086 526.968 64.754 527.451 65.2789C525.83 66.2217 523.309 65.5267 523.206 68.3696C525.604 69.3334 527.353 72.0042 530.153 71.7984C534.855 71.4583 539.461 72.8839 544.142 72.2372C546.405 71.9285 548.112 72.6404 549.292 74.6855C549.538 75.1075 550.285 75.2398 550.896 75.559C551.843 74.6939 552.71 73.8896 553.544 73.1233C554.814 73.2345 556.015 73.3753 557.214 73.4257C559.152 73.4887 560.429 74.0682 561.565 76.0167C562.988 78.4166 565.672 77.8245 567.267 75.1663C567.641 74.5343 568.063 73.9379 568.538 73.1989C569.892 73.9484 570.915 74.5175 571.92 75.0656C573.176 74.3013 574.356 73.5769 575.838 72.6656C576.516 73.5706 577.054 74.3517 577.663 75.0823C578.9 76.5668 580.231 76.6928 581.814 75.5464C585.131 73.1402 585.19 73.1527 587.63 76.1447C591.412 75.7752 594.991 75.3448 598.576 75.1054C602.303 74.8639 605.685 76.0166 608.57 78.5635C610.036 76.3841 611.762 75.8613 614.013 75.8361C623.721 75.7249 633.445 75.7248 643.143 74.8324C647.968 74.3873 652.8 73.4466 657.564 75.4413C658.335 75.7583 659.494 75.0445 660.487 74.9437C666.863 74.2676 673.259 71.9181 679.575 75.456C681.25 76.3925 683.161 76.0922 684.709 74.6749C686.43 73.0876 688.4 73.1527 690.445 73.9148C691.77 74.4146 693.093 74.9396 694.562 75.5086C696.022 74.8514 697.653 72.9826 699.413 74.2004C701.365 75.5484 703.599 74.1648 705.162 75.1537C707.49 76.634 709.445 75.1138 711.505 75.2377C714.167 75.3888 716.808 75.7815 719.467 75.8361L719.467 75.8907C719.647 75.8991 719.821 75.8592 720.006 75.8592C720.187 75.8592 720.369 75.897 720.548 75.8907L720.548 75.8361C723.204 75.7815 725.848 75.3888 728.514 75.2377C730.568 75.1117 732.529 76.634 734.851 75.1537C736.413 74.1627 738.653 75.5484 740.598 74.2004C742.364 72.9826 743.991 74.8535 745.45 75.5086C746.916 74.9396 748.245 74.4146 749.568 73.9148C751.615 73.1548 753.588 73.0897 755.31 74.6749C756.858 76.0922 758.764 76.3925 760.438 75.456C766.756 71.916 773.151 74.2676 779.528 74.9437C780.523 75.0444 781.68 75.7604 782.451 75.4413C787.213 73.4466 792.048 74.3873 796.873 74.8324C806.563 75.7248 816.291 75.7248 826.004 75.8361C828.251 75.8613 829.975 76.384 831.442 78.5635C834.327 76.0166 837.704 74.8639 841.437 75.1054C845.023 75.3448 848.601 75.7752 852.382 76.1447C854.818 73.1527 854.871 73.138 858.192 75.5464C859.784 76.6928 861.105 76.5668 862.343 75.0823C862.952 74.3495 863.494 73.5684 864.174 72.6656C865.654 73.5768 866.839 74.2991 868.096 75.0655C869.1 74.5175 870.118 73.9505 871.475 73.1988C871.956 73.9379 872.371 74.5343 872.743 75.1663C874.337 77.8265 877.028 78.4187 878.444 76.0167C879.582 74.0661 880.86 73.4887 882.794 73.4257C883.995 73.3753 885.194 73.2324 886.462 73.1232C887.296 73.8896 888.167 74.6939 889.116 75.5589C889.734 75.2398 890.477 75.1075 890.714 74.6854C891.896 72.6403 893.616 71.9285 895.869 72.2372C900.547 72.8839 905.156 71.4582 909.857 71.7984C912.658 72.0041 914.407 69.3334 916.805 68.3696C916.706 65.5266 914.182 66.2238 912.557 65.2789C913.042 64.754 913.437 64.0086 913.72 64.0485C916.717 64.5041 919.721 64.9912 922.686 65.6736C924.882 66.1713 926.707 65.8584 928.37 63.8133C929.732 64.5125 931.122 65.2348 932.626 66.0075C931.309 68.2814 928.974 66.501 927.679 67.8196C935.588 70.1754 940.206 72.5333 940.489 82.6496C945.48 84.5351 950.981 82.4395 956.316 84.2599C956.86 85.6163 957.459 87.0966 958.068 88.5915C958.695 88.8372 959.302 89.3076 959.81 89.2321C961.794 88.8982 963.768 88.472 965.71 87.926C967.413 87.4473 969.064 86.7733 971.077 86.0678C970.897 85.6017 970.634 84.9214 970.321 84.0941C970.804 82.9183 972.112 83.8589 972.879 83.3591C973.702 82.809 974.372 81.9881 975.232 81.5702C977.091 80.6695 978.68 81.8643 981.443 82.2989C979.115 83.3005 977.79 83.8737 976.492 84.4259C976.746 85.1461 976.765 85.6835 977.021 85.8179C977.714 86.2105 978.512 86.704 979.243 86.6767C984.293 86.4772 989.395 87.6068 994.363 85.3979C996.313 84.5308 998.782 84.8374 1001.05 84.596C1004.09 88.3901 1007.83 86.8635 1011.54 86.5297C1011.34 84.6295 1010.14 84.9487 1009.21 84.8269C1007.73 84.6211 1005.93 85.7151 1004.87 83.7981C1005.18 82.5635 1006.02 82.7902 1006.81 83.0149C1008.03 83.395 1009.38 83.7329 1010.14 82.4941C1011.38 80.4805 1013.26 81.2322 1014.92 81.0012C1014.46 80.153 1014.1 78.8701 1013.46 78.7232C1011.37 78.2465 1009.95 76.0398 1007.29 76.7935C1005.28 77.3731 1003.02 77.0224 1000.49 77.1021C1000.03 76.214 999.591 74.866 998.745 73.8414C998.085 73.0372 996.343 73.5453 995.851 71.8487C997.552 70.4902 999.446 71.3511 1001.16 71.1034C1002.76 70.8577 1004.36 70.5427 1006.08 70.2467C1006.89 70.9984 1007.72 71.7731 1008.99 72.9637C1009.08 71.3427 1009.14 70.2425 1009.19 69.304C1004.25 68.2709 999.702 67.3303 995.152 66.3162C994.657 66.2007 994.268 65.598 993.857 65.2432C994.365 63.6936 995.52 63.8679 996.294 64.3844C998.476 65.829 1000.12 65.0647 1001.7 63.2589C1004.46 63.7587 1007.05 64.9576 1010.07 64.1367C1011.59 63.7272 1013.53 64.9052 1015.7 65.4805C1016.37 64.964 1017.3 64.2123 1018.26 63.5068C1019.62 62.5094 1020.92 62.7026 1022.17 63.7462C1023.24 64.6448 1024.31 65.5393 1025.66 66.6563C1026.92 65.3545 1027.97 64.2437 1029.02 63.1603C1033.29 66.8263 1033.29 66.8263 1038.7 67.431C1038.7 68.1806 1038.7 68.9555 1038.7 70.0998C1039.94 70.3245 1041.29 70.5742 1042.66 70.8031C1043.82 70.9942 1045 71.1537 1046.06 71.307C1046.43 72.7999 1045.71 72.9259 1044.82 73.0077C1043.62 73.1232 1042.43 73.3542 1040.33 73.6734C1043.14 75.0928 1045.31 74.4587 1047.36 74.6666C1049.59 74.8954 1051.79 75.3909 1054.02 75.6576C1056.25 75.9263 1058.5 76.067 1060.69 76.2602C1063.84 80.6674 1063.84 80.6674 1063.99 83.1618C1068.15 83.3864 1072.35 83.6111 1076.79 83.8568C1076.09 85.9942 1074.65 85.9733 1073.3 86.0783C1072.33 86.1476 1071.26 85.9501 1070.4 86.3008C1069.79 86.538 1069.12 87.4977 1069.13 88.1339C1069.14 88.5853 1070.26 89.4482 1070.82 89.4062C1075.07 89.0199 1079.32 88.4803 1083.56 87.9406C1084.55 87.8126 1085.51 87.3444 1086.48 87.3696C1089.94 87.4347 1093.39 88.3459 1096.84 87.315C1100.39 88.8876 1104.04 87.569 1107.64 87.6719C1111.39 87.7811 1114.9 86.7964 1118.37 85.44C1118.37 84.5329 1118.37 83.7371 1118.37 82.9959C1118.76 82.7314 1119.07 82.3304 1119.39 82.3262C1125.3 82.1477 1131.23 82.1414 1137.13 81.8286C1139.75 81.6879 1142.34 80.9508 1145.83 80.3335C1144.1 79.7834 1143.09 79.6721 1142.33 79.164C1141.76 78.8008 1141.14 77.8517 1141.25 77.2932C1141.35 76.7704 1142.55 75.9264 1142.96 76.0713C1147.11 77.5683 1151.38 75.7164 1155.53 76.6025C1156.09 76.7158 1156.73 76.447 1157.52 76.3253C1158.41 74.3012 1159.34 72.2078 1160.27 70.1229C1160.52 70.1523 1160.78 70.19 1161.03 70.2215C1161.1 71.1244 1161.27 72.0294 1161.23 72.928C1161.13 75.7416 1164.07 77.0287 1166.53 75.4161C1167.53 74.7757 1168.3 73.8161 1169.39 72.7894C1171.27 73.52 1173.12 74.2403 1175.37 75.1116C1175.64 74.5111 1176.14 73.8665 1176.22 73.1778C1176.45 70.8744 1175.69 69.9045 1173.71 69.9906C1171.88 70.0599 1170.05 70.4588 1168.22 70.4882C1166.67 70.5113 1165.13 70.2131 1163.21 70.0262C1164.06 68.7979 1164.57 68.0316 1165.11 67.2631C1162.86 64.985 1160.37 64.479 1157.27 65.1677C1154.96 65.68 1152.44 65.3733 1150.03 65.2872C1149.57 65.2683 1149.15 64.6007 1148.25 63.8511C1150.43 63.0617 1152.22 62.4129 1154.07 61.7452C1153.7 60.6365 1153.37 59.7021 1153.06 58.7951C1156.03 55.7022 1156.03 55.7022 1160.28 57.4282L1160.12 57.2939C1163.57 53.2247 1167.87 52.5213 1173.19 54.0898C1172.52 55.4357 1171.95 56.5799 1171.27 57.9573C1172.64 59.173 1173.96 60.3573 1175.31 61.5709C1176.92 60.3069 1175.21 59.3262 1175.34 58.2722C1175.46 57.2665 1175.36 56.2335 1175.36 54.9548C1177.61 54.5517 1179.75 54.1422 1181.9 53.7895C1184.59 53.357 1185.95 54.0331 1187.38 56.5401C1188.19 57.9279 1188.9 59.3704 1189.73 60.922C1192.15 60.6764 1194.35 60.458 1196.54 60.2396C1196.89 59.2948 1197.22 58.4003 1197.56 57.4555C1197.96 57.8229 1198.31 58.0391 1198.5 58.3541C1200.16 60.9997 1200.25 61.1237 1202.67 60.6134C1204.86 60.1431 1207 59.2822 1209.58 60.3951C1209.81 61.1216 1210.11 62.0538 1210.44 63.0973C1211.69 63.4501 1212.98 63.8238 1214.74 64.334C1213.81 65.8605 1213.09 67.0132 1212.25 68.3969C1204.02 68.7874 1195.66 68.3654 1187.2 70.1522C1187.11 71.6409 1187.02 73.0057 1186.93 74.2949C1188.11 74.7148 1189 75.0445 1189.9 75.3783C1189.55 77.9168 1186.1 75.7626 1185.92 78.2927C1191.77 81.3225 1197.34 82.7104 1202.95 82.7692C1205.07 82.7902 1207.01 82.8931 1208.28 80.6989C1208.56 80.2097 1209.61 80.0984 1210.33 79.9661C1210.69 79.9094 1211.23 80.4154 1211.48 80.2684C1213.97 78.9582 1216.75 79.985 1219.28 79.2459C1219.78 79.101 1220.17 78.5635 1220.62 78.1918C1219.54 76.1992 1217.65 76.9425 1216.16 76.6003C1214.6 76.2391 1212.99 76.067 1211.39 75.8129C1211.2 74.1583 1212.24 73.9232 1213.19 73.9022C1217.46 73.812 1221.74 73.3815 1225.96 74.5258C1226.74 74.7358 1227.68 75.0276 1228.36 74.7631C1231.86 73.4193 1235.16 75.4959 1239.56 74.6833C1235.43 76.9699 1232.06 77.0119 1228.58 76.8271C1227.13 76.7578 1226.4 77.7761 1227.15 79.6448C1228.41 79.6448 1229.82 79.7876 1231.18 79.6218C1234.84 79.1535 1238.47 78.8091 1242.15 79.5251C1245.36 80.1445 1248.6 78.5258 1251.83 79.521C1252.41 79.6953 1253.12 79.5293 1253.61 79.8044C1254.07 80.0563 1254.62 80.6989 1254.6 81.1377C1254.58 81.5534 1253.92 82.0511 1253.45 82.3072C1252.94 82.5508 1252.31 82.5508 1251.21 82.7713C1255.13 82.7776 1258.51 83.1324 1261.6 80.9446C1262.56 80.2685 1264.44 80.4889 1265.77 80.8206C1271.19 82.1707 1276.71 81.9545 1282.19 82.3513C1294.65 83.2416 1307.06 84.5686 1319.42 86.3575C1322.86 86.8573 1326.31 87.3948 1329.78 87.6908C1332.62 87.9281 1335.52 88.1212 1338.35 87.8587C1346.3 87.0944 1354.23 86.1433 1362.14 85.1334C1367.21 84.4888 1372.24 83.5943 1377.29 82.8174C1377.89 82.7271 1378.51 82.4983 1379.08 82.5844C1389.09 84.1886 1399.1 82.5697 1409.09 82.7124C1411.12 82.7418 1413.15 82.9518 1415.18 83.0631C1417.83 83.2079 1420.48 83.3529 1423.13 83.504C1426.78 83.7182 1430.51 82.7398 1434.07 84.2621C1434.24 84.3419 1434.48 84.3397 1434.67 84.3187C1436.45 84.1549 1438.22 84.0584 1440 83.9954L1440 3.87167C1438.16 4.02914 1436.32 4.27062 1434.48 4.66955C1433.73 4.84173 1432.8 4.78091 1432.11 4.48066C1429.19 3.20615 1426.08 3.47704 1423.05 3.22718C1422.23 3.16209 1421.34 3.49173 1420.62 3.24397C1415.38 1.42145 1410.55 2.8933 1405.79 4.97828C1404.03 5.74256 1402.64 5.54939 1401.61 3.79196C1400.91 2.57625 1399.73 2.42084 1398.43 2.42084C1387.8 2.46913 1377.18 2.47966 1366.56 2.45237C1364.12 2.45237 1361.53 2.78198 1360.24 0.36525C1357.97 1.14003 1356.12 2.18572 1354.19 2.3369C1345.22 3.06339 1336.24 3.68694 1327.25 4.06698C1315.79 4.53941 1304.33 4.7053 1292.86 5.05595C1286.98 5.23442 1281.1 5.6942 1275.23 5.6543C1272.22 5.63331 1269.17 5.46544 1266.18 5.23447C1255.55 4.4198 1244.91 4.38198 1234.29 4.70533C1226.73 4.94049 1219.19 5.81399 1211.63 6.13104C1206.53 6.34941 1201.41 6.12471 1196.3 6.09952C1195.29 6.09742 1194.23 5.97555 1193.25 6.16872C1190.95 6.63275 1188.91 8.80393 1186.31 7.15359C1183.91 7.88637 1181.5 7.48534 1179.05 7.37196C1175.38 7.21449 1171.69 7.41182 1168.02 7.5483C1167.23 7.5819 1166.45 7.96819 1165.7 8.23905C1164.92 8.49731 1164.14 9.1524 1163.43 9.07052C1157.5 8.5414 1151.73 10.4311 1145.81 10.072C1141.31 9.80118 1136.86 10.0175 1132.36 10.66C1128.14 11.2521 1123.78 11.1009 1119.48 11.0505C1117.7 11.0316 1115.93 10.406 1113.86 9.99656C1111.73 11.628 1109.31 13.2699 1106.28 11.4369C1103.36 12.2012 1100.39 11.1996 1097.39 11.8106C1093.41 12.6169 1089.3 12.8667 1085.24 13.0032C1083.73 13.0536 1082.05 12.3502 1080.72 11.5418C1079.27 10.6621 1078.12 10.5697 1076.79 11.5146C1075.24 12.6085 1074.06 11.7371 1073.03 10.6621C1070.34 7.8569 1070.38 7.87372 1066.92 9.75922C1066.3 10.1078 1065.04 10.4017 1064.76 10.0868C1062.93 8.0795 1060.63 8.45322 1058.46 8.78077C1054.25 9.40437 1049.85 8.65057 1045.82 10.5697C1045.37 10.7838 1044.68 10.5508 1044.11 10.4164C1043.53 10.2757 1042.91 9.7425 1042.42 9.86008C1037.51 10.9624 1032.7 9.43165 1027.84 9.51984C1026 9.54713 1024.15 9.47579 1022.34 9.20073C1020.14 8.87948 1017.97 7.9724 1015.78 7.9388C1013.79 7.91151 1011.8 9.02431 1009.79 9.12089C1002.85 9.45684 995.879 9.93562 988.945 9.67106C977.901 9.24693 966.876 9.21542 955.846 9.55137C948.474 9.78233 941.1 9.59335 933.732 9.74873C926.98 9.89361 920.229 10.2673 913.479 10.5256C912.049 10.5823 910.6 10.7524 909.191 10.6117C895.3 9.21964 881.375 9.98807 867.473 9.72772C864.405 9.67103 861.352 9.35407 858.293 9.29738C853.787 9.21549 849.283 9.15663 844.849 10.2296C843.673 10.5256 842.405 10.6264 841.185 10.5907C833.422 10.3576 825.733 11.4621 818.007 11.9345C815.919 12.0563 814 12.1339 812.335 10.4332C811.191 9.27629 809.646 9.2323 808.688 10.7735C807.309 12.9886 805.293 13.2384 803.376 12.2326C800.575 10.7628 797.835 11.29 795.198 12.069C791.509 13.1545 787.939 12.9822 784.321 12.0899C782.898 11.7308 781.579 11.9345 780.137 12.1655C775.301 12.9549 770.436 12.7114 765.198 12.0815C766.033 11.0128 766.583 10.301 767.14 9.59342C764.045 8.15724 762.919 7.9662 761.015 10.2758C759.163 12.5267 756.205 10.8868 754.407 12.8983C754.019 13.3392 752.488 12.8668 751.522 12.6548C749.534 12.1991 747.415 11.9451 745.62 11.0527C743.726 10.11 742.141 10.7734 740.501 11.1955C739.51 10.364 740.822 8.49316 738.958 8.195C737.543 7.98294 737.52 9.33304 736.944 10.0427C734.03 8.36299 734.03 8.36293 729.637 10.6138C729.066 9.99648 728.474 9.25111 727.777 8.63381C726.757 7.73934 725.617 7.71209 724.359 8.26011C723.051 8.82282 724.077 9.53458 724.149 10.301C723.349 10.364 722.553 10.4332 721.795 10.5046C721.335 9.58494 720.945 8.8081 720.537 8.00393L720.537 6.81556C720.401 6.76936 720.258 6.73358 720.118 6.69368C720.086 6.76297 720.036 6.85965 719.996 6.92474C719.958 6.85965 719.914 6.76297 719.874 6.69368C719.735 6.73358 719.597 6.76726 719.456 6.81556L719.456 7.9997C719.051 8.81017 718.66 9.58704 718.198 10.5046C717.443 10.4332 716.647 10.3661 715.847 10.301C715.916 9.53668 716.951 8.82492 715.635 8.26011C714.385 7.71209 713.239 7.73934 712.219 8.63381C711.519 9.25111 710.938 9.99648 710.354 10.6138C705.972 8.36293 705.972 8.36299 703.047 10.0427C702.476 9.33304 702.449 7.98504 701.04 8.19501C699.173 8.49316 700.486 10.3619 699.499 11.1955C697.853 10.7734 696.267 10.1079 694.378 11.0527C692.584 11.9451 690.47 12.1991 688.475 12.6548C687.505 12.8689 685.979 13.3392 685.59 12.8983C683.797 10.8868 680.826 12.5267 678.983 10.2758C677.083 7.9641 675.953 8.15725 672.862 9.59343C673.417 10.3031 673.969 11.0149 674.806 12.0815C669.564 12.7114 664.701 12.955 659.865 12.1655C658.425 11.9345 657.106 11.7308 655.678 12.0899C652.059 12.9843 648.489 13.1566 644.798 12.069C642.165 11.29 639.425 10.7629 636.628 12.2326C634.709 13.2384 632.695 12.9865 631.314 10.7735C630.35 9.23231 628.811 9.2763 627.665 10.4332C626 12.134 624.085 12.0542 621.995 11.9346C614.269 11.4621 606.582 10.3577 598.809 10.5907C597.597 10.6264 596.329 10.5256 595.153 10.2296C590.714 9.15456 586.206 9.21551 581.711 9.2974C578.652 9.35409 575.588 9.67105 572.533 9.72774C558.623 9.9881 544.698 9.21967 530.811 10.6118C529.396 10.7524 527.955 10.5823 526.515 10.5256C519.766 10.2674 513.024 9.89364 506.27 9.74877C498.9 9.59339 491.524 9.78447 484.15 9.55141C473.126 9.21546 462.097 9.24697 451.052 9.67111C444.123 9.93567 437.144 9.45689 430.205 9.12095C428.195 9.02646 426.207 7.91366 424.216 7.93885C422.033 7.97245 419.858 8.87744 417.655 9.20079C415.856 9.47794 413.991 9.54719 412.162 9.51989C407.293 9.4317 402.487 10.9646 397.576 9.86014C397.093 9.74046 396.471 10.2737 395.892 10.4165C395.319 10.5508 394.626 10.7839 394.181 10.5697C390.149 8.65273 385.742 9.40443 381.543 8.78083C379.367 8.45328 377.072 8.07956 375.239 10.0868C374.958 10.3997 373.696 10.1078 373.072 9.75929C369.616 7.87378 369.663 7.85696 366.971 10.6621C365.95 11.7372 364.762 12.6085 363.212 11.5146C361.888 10.5698 360.731 10.6621 359.284 11.5419C357.959 12.3524 356.275 13.0557 354.763 13.0033C350.703 12.8668 346.587 12.6148 342.619 11.8107C339.614 11.1996 336.649 12.2033 333.725 11.437C330.695 13.27 328.27 11.6302 326.149 9.99663C324.077 10.4061 322.3 11.0317 320.524 11.0506C316.224 11.101 311.875 11.2543 307.64 10.6601C303.145 10.0155 298.689 9.80126 294.2 10.0721C288.281 10.4312 282.509 8.54148 276.578 9.07059C275.86 9.15248 275.085 8.49739 274.31 8.23913C273.548 7.96827 272.775 7.58198 271.988 7.54838C268.309 7.4119 264.618 7.21457 260.958 7.37204C258.512 7.48542 256.097 7.88435 253.695 7.15367C251.092 8.80401 249.053 6.63283 246.756 6.1688C245.771 5.97563 244.717 6.0975 243.703 6.0996C238.599 6.1248 233.473 6.34949 228.373 6.13113C220.812 5.81618 213.272 4.94268 205.714 4.70542C195.087 4.38207 184.457 4.41989 173.828 5.23457C170.838 5.46553 167.783 5.6334 164.778 5.6544C158.905 5.6922 153.016 5.23452 147.141 5.05605C135.675 4.70541 124.206 4.53952 112.75 4.06709C103.766 3.68495 94.7772 3.0635 85.8052 2.33701C83.884 2.18793 82.0322 1.14224 79.7666 0.365362C78.469 2.78209 75.8739 2.45248 73.4487 2.45248C62.8181 2.48188 52.2021 2.46925 41.5672 2.42096C40.2738 2.42096 39.0895 2.57636 38.3819 3.79208C37.3678 5.54951 35.9778 5.74268 34.2141 4.9784C29.4542 2.89342 24.627 1.42157 19.3841 3.24409C18.6576 3.49185 17.7674 3.16221 16.9548 3.2273C13.925 3.47717 10.8091 3.20628 7.8905 4.48078C7.20181 4.78103 6.2716 4.84185 5.53042 4.66968C3.6827 4.27074 1.84554 4.02927 -7.13554e-05 3.87179L-6.43508e-05 83.9955C1.77836 84.0585 3.54836 84.1551 5.32679 84.3188ZM250.787 71.9307L250.955 72.4115L250.552 72.3779L250.787 71.9307ZM242.641 75.1139L242.653 75.4225L242.279 75.2818L242.641 75.1139ZM234.446 73.726C234.895 74.0745 235.441 74.4083 235.409 74.4944C235.218 74.9311 234.922 75.3616 234.555 75.6514C234.465 75.727 233.681 75.221 233.709 75.1307C233.87 74.6499 234.173 74.2089 234.446 73.726ZM289.176 70.4904L289.188 70.1145L289.591 70.3181L289.176 70.4904ZM1150.81 70.1144L1150.82 70.4903L1150.4 70.318L1150.81 70.1144ZM1189.04 72.4094L1189.2 71.9285L1189.44 72.3758L1189.04 72.4094ZM1197.34 75.4245L1197.35 75.1159L1197.71 75.2839L1197.34 75.4245ZM1205.43 75.6513C1205.07 75.3615 1204.77 74.931 1204.59 74.4943C1204.55 74.4082 1205.1 74.0745 1205.54 73.7259C1205.81 74.2067 1206.12 74.6477 1206.28 75.1306C1206.31 75.2209 1205.53 75.7269 1205.43 75.6513ZM1421.46 38.1804C1421.47 38.2812 1421.47 38.3736 1421.49 38.4702C1421.32 38.4492 1421.14 38.4429 1421 38.3736C1420.95 38.3526 1420.98 38.1594 1420.98 38.046C1421.14 38.0943 1421.31 38.1384 1421.46 38.1804ZM1415.73 6.39131C1413.49 6.96452 1411.95 7.02965 1410.28 5.17564C1412.5 4.46175 1413.97 4.74516 1415.73 6.39131ZM1348.94 33.622C1349.05 33.9768 1349.12 34.1952 1349.2 34.4157C1349.05 34.3695 1348.9 34.3296 1348.75 34.2939C1348.8 34.128 1348.85 33.958 1348.94 33.622ZM1337.83 33.3533C1337.93 33.4834 1338.13 33.7039 1338.12 33.7249C1337.92 33.916 1337.7 34.084 1337.48 34.2688C1337.38 34.1365 1337.28 34.0063 1337.17 33.8719C1337.4 33.6976 1337.62 33.5275 1337.83 33.3533ZM1270.15 55.4734C1269.64 55.4734 1269.13 55.2949 1268.61 55.1752C1268.7 54.8624 1268.77 54.2891 1268.88 54.2787C1269.42 54.2367 1269.97 54.3458 1270.57 54.4004C1270.39 54.8686 1270.27 55.4734 1270.15 55.4734ZM1270.9 67.9979C1271.02 67.8845 1271.13 67.7061 1271.26 67.6893C1271.4 67.6683 1271.56 67.7943 1271.71 67.8699C1271.44 67.9056 1271.17 67.9496 1270.9 67.9979ZM1272.92 43.0538C1272.69 43.1503 1272.28 42.7955 1271.95 42.638C1272.1 42.3399 1272.25 42.0396 1272.39 41.7352C1272.75 41.8654 1273.11 41.9851 1273.46 42.1173C1273.29 42.4428 1273.18 42.9383 1272.92 43.0538ZM1274.59 54.4655C1275.01 54.1358 1275.4 53.7411 1275.87 53.5311C1276.05 53.4429 1276.43 53.7874 1276.72 53.9385C1276.35 54.4404 1275.98 54.94 1275.57 55.5048C1275.05 54.961 1274.82 54.7154 1274.59 54.4655ZM1275.75 48.9601C1275.98 48.7817 1276.23 48.66 1276.49 48.5193C1276.53 48.6663 1276.59 48.8216 1276.63 48.9749C1276.38 49.1113 1276.12 49.2499 1275.87 49.3906C1275.83 49.2436 1275.7 48.9958 1275.75 48.9601ZM1275.67 68.1302C1275.66 67.9643 1275.66 67.7921 1275.65 67.6326C1277.09 67.6326 1278.53 67.6326 1279.97 67.6326C1280.02 67.7921 1280.07 67.9643 1280.12 68.1302C1278.63 68.1302 1277.15 68.1302 1275.67 68.1302ZM1287.16 68.9029C1286.31 69.0709 1285.59 68.632 1285.58 67.2105C1286.56 66.8494 1287.66 66.421 1288.77 66.0578C1290.07 65.6211 1291.39 65.2348 1292.92 64.7602C1293.29 65.3314 1293.7 65.9697 1294.49 67.198C1291.5 67.9056 1289.35 68.4872 1287.16 68.9029ZM1286.95 55.213C1287.86 53.3527 1288.68 51.6436 1289.74 49.4474C1290.94 52.0594 1291.82 53.97 1292.87 56.2671C1290.8 56.0907 1288.85 56.7794 1286.95 55.213ZM1293.1 50.7827L1293.5 50.8541L1293.3 51.1439L1293.1 50.7827ZM1307.47 57.0124C1307.5 56.9074 1307.53 56.8025 1307.56 56.7038C1307.74 56.7143 1307.92 56.7353 1308.11 56.7437C1307.9 56.834 1307.69 56.92 1307.47 57.0124ZM1319.29 32.0242C1319.35 32.0284 1319.39 32.2741 1319.44 32.4043C1319.28 32.4526 1319.12 32.5428 1318.97 32.5281C1318.91 32.5239 1318.87 32.2909 1318.82 32.1586C1318.98 32.1061 1319.14 32.0158 1319.29 32.0242ZM1314.76 43.606C1313.71 44.3493 1313.1 45.1472 1312.56 45.0905C1311.39 44.9687 1310.23 44.4606 1309.11 44.0091C1308.91 43.9252 1308.71 43.2239 1308.84 43.0013C1309.53 41.8423 1310.64 41.2417 1311.93 41.6869C1312.78 41.985 1313.48 42.7199 1314.76 43.606ZM1303.18 30.4725C1304.14 29.8153 1305.21 29.1875 1306.31 28.923C1307.19 28.713 1308.42 28.7445 1309.11 29.2232C1310.6 30.2626 1311.79 31.684 1311.79 34.1785C1308.9 33.9664 1306.15 33.8173 1303.41 33.5045C1303.06 33.4583 1302.59 32.5848 1302.54 32.062C1302.51 31.5371 1302.78 30.7496 1303.18 30.4725ZM1299.63 40.341C1299.91 40.1919 1300.36 40.3725 1301.64 40.4922C1300.54 41.1116 1300.23 41.4056 1299.87 41.4602C1299.44 41.5421 1298.97 41.4202 1298.52 41.3908C1298.88 41.0339 1299.19 40.572 1299.63 40.341ZM1296.26 41.7037C1296.28 42.2748 1295.44 42.8795 1294.93 43.4254C1294.83 43.5409 1294.52 43.5598 1294.36 43.5031C1291.82 42.6716 1291.36 45.3991 1289.94 46.4174C1287.64 45.0736 1285.58 43.8685 1282.69 42.1719C1285.18 41.2229 1286.88 40.635 1288.54 39.94C1290.69 39.0329 1292.86 39.2429 1294.95 39.9148C1295.55 40.1163 1296.25 41.0738 1296.26 41.7037ZM1294.76 35.5937C1294.92 35.6608 1295.09 35.7217 1295.25 35.7931C1295.22 35.9463 1295.24 36.1794 1295.15 36.2298C1295 36.3075 1294.79 36.2676 1294.6 36.2781C1294.66 36.0493 1294.7 35.8225 1294.76 35.5937ZM1285.07 32.4714C1286.93 33.6137 1288.92 34.5438 1290.85 35.5433C1290.85 35.5349 1290.86 35.5285 1290.86 35.5138C1290.89 35.497 1290.91 35.4761 1290.95 35.4572C1290.61 34.3527 1290.18 33.2567 1290.04 32.1313C1289.9 30.9051 1290.96 30.3508 1291.93 30.0694C1292.39 29.9414 1293.4 30.1974 1293.47 30.4725C1293.74 31.367 1294.07 32.5954 1293.65 33.2358C1293.06 34.1764 1291.9 34.7433 1290.95 35.4572C1290.96 35.5139 1290.98 35.5664 1290.99 35.6147C1290.94 35.5937 1290.9 35.5685 1290.85 35.5433C1290.33 37.2272 1288.96 37.75 1287.51 37.4329C1284.73 36.8492 1282.26 35.5937 1280.58 33.0131C1282.07 31.7449 1283.4 31.4447 1285.07 32.4714ZM1280.6 63.914C1278.16 64.6615 1278.16 64.6615 1276.2 64.3633C1277.3 63.4752 1278.37 62.6206 1280.6 63.914ZM1271.4 33.6367C1271.44 33.622 1271.48 33.5947 1271.51 33.5737L1271.51 33.5822C1273.27 31.8688 1275.11 30.6195 1277.84 32.6793C1276.93 33.2462 1276.14 33.683 1275.42 34.21C1274.67 34.779 1273.98 35.4362 1272.9 36.358C1272.32 35.1885 1271.93 34.3653 1271.51 33.5822C1271.49 33.6011 1271.46 33.6263 1271.44 33.6473C1271.43 33.6473 1271.42 33.643 1271.4 33.6367C1269.99 34.5102 1268.57 35.3816 1266.96 36.3705C1266.39 35.3648 1265.93 34.5711 1265.48 33.7732C1267.7 31.8751 1269.54 33.3596 1271.4 33.6367ZM1265.67 41.8822C1266.31 42.0649 1266.96 42.2496 1267.76 42.468C1267.29 43.0643 1267.01 43.5724 1266.9 43.5346C1266.37 43.375 1265.87 43.1041 1265.44 42.7703C1265.35 42.6926 1265.58 42.1908 1265.67 41.8822ZM1265.97 67.5066C1266.23 67.9769 1266.54 68.4095 1266.68 68.8987C1266.72 68.9995 1265.92 69.5118 1265.86 69.4447C1265.48 69.0961 1265.21 68.6321 1264.89 68.208C1265.19 68.0148 1265.49 67.8236 1265.97 67.5066ZM1262.83 75.2461C1262.98 75.2734 1263.13 75.3027 1263.27 75.3363C1263.23 75.5022 1263.22 75.6891 1263.12 75.8108C1263.09 75.8612 1262.75 75.7688 1262.74 75.7205C1262.72 75.5651 1262.8 75.4056 1262.83 75.2461ZM1258.81 68.4913C1259.03 68.0966 1259.83 67.6432 1260.17 67.7649C1260.73 67.9707 1261.12 68.6257 1261.69 69.2073C1261.03 69.8498 1260.71 70.4399 1260.29 70.5323C1259.44 70.7108 1258.39 69.2724 1258.81 68.4913ZM1254.53 75.7941L1254.38 76.1467L1254.2 75.8003L1254.53 75.7941ZM1252.84 67.5486C1253.2 67.5486 1253.55 67.5466 1253.89 67.5739C1253.91 67.576 1253.9 67.8803 1253.91 68.0483C1253.55 68.042 1253.2 68.042 1252.85 68.0105C1252.83 68.0042 1252.84 67.6872 1252.84 67.5486ZM1247.56 75.4917C1247.43 75.5358 1247.23 75.3364 1247.05 75.2461C1247.25 74.9563 1247.45 74.6749 1247.65 74.3788C1247.9 74.5783 1248.15 74.7715 1248.4 74.9689C1248.13 75.1515 1247.86 75.3805 1247.56 75.4917ZM1249.58 67.1098C1247.01 68.441 1245.32 69.3355 1243.33 70.3643C1241.56 68.8798 1239.49 68.7686 1237.31 69.8268C1236.78 70.0746 1236.11 70.1502 1235.52 70.1166C1229.66 69.8163 1223.8 69.4824 1217.94 69.1149C1217.62 69.096 1217.33 68.6719 1216.86 68.2982C1217.59 67.2547 1218.33 66.1964 1219.18 64.9681C1224.1 65.155 1228.97 65.2222 1233.82 65.5561C1238.74 65.8941 1243.8 65.1151 1249.58 67.1098ZM1231.83 56.0089C1233.96 58.3563 1233.96 58.3563 1237.48 60.6848C1236.38 60.6848 1235.16 60.9809 1234.19 60.6029C1233.19 60.2019 1232.27 59.2843 1231.64 58.373C1231.23 57.783 1230.43 56.6619 1231.83 56.0089ZM1221.97 56.6974C1218.63 57.8691 1215.72 58.8938 1212.32 60.0738C1212 58.4906 1214.1 56.8508 1211.95 55.7044C1215.39 54.0456 1218.4 55.8786 1221.97 56.6974ZM1199.91 7.42655C1200.32 7.51684 1200.71 7.6911 1201.12 7.83178C1200.58 7.83178 1200.04 7.83178 1199.38 7.83178C1199.64 7.63231 1199.81 7.40556 1199.91 7.42655ZM1191.5 54.8372C1191.99 55.0849 1192.5 55.3243 1192.99 55.5679C1192.78 56.0466 1192.6 56.6786 1192.52 56.6618C1191.96 56.5988 1191.43 56.3742 1190.88 56.2062C1191.09 55.7506 1191.3 55.2949 1191.5 54.8372ZM1148.17 73.8687L1148.21 74.2108L1147.79 74.0765L1148.17 73.8687ZM1143.16 58.0916C1145.78 58.9021 1146.41 59.6182 1146.43 62.0076C1145.5 61.6465 1144.6 61.3063 1143.7 60.9598C1142.82 60.6239 1141.94 60.2796 1140.97 59.8974C1142.37 57.9552 1142.47 57.8859 1143.16 58.0916ZM1133.18 78.4292C1133.21 78.5971 1133.32 78.8071 1133.26 78.9163C1133.21 79.0339 1132.97 79.0779 1132.82 79.1535C1132.7 79.0254 1132.6 78.8911 1132.5 78.7672C1132.72 78.6602 1132.95 78.5425 1133.18 78.4292ZM1113.42 83.4978C1113.59 83.5566 1113.77 83.6091 1113.96 83.6553C1113.91 83.8065 1113.87 83.9576 1113.83 84.1109C1113.65 84.0605 1113.45 84.0458 1113.3 83.9366C1113.26 83.9114 1113.38 83.6469 1113.42 83.4978ZM1060.59 72.7495C1060.87 72.8314 1061.14 72.9428 1061.41 73.0414C1061.36 73.1863 1061.3 73.3248 1061.24 73.4718C1060.98 73.3458 1060.71 73.2409 1060.45 73.1023C1060.43 73.0918 1060.58 72.7474 1060.59 72.7495ZM987.822 82.1687C988.473 82.4228 989.017 82.9393 989.582 83.3761C989.651 83.4243 989.544 83.8632 989.502 83.8632C988.618 83.8884 987.705 84.0038 986.867 83.8001C986.533 83.7245 986.359 82.9519 985.976 82.2296C986.781 82.1855 987.369 81.9965 987.822 82.1687ZM981.063 71.6241C981.202 71.6871 981.414 71.706 981.46 71.7984C981.504 71.8865 981.374 72.0608 981.336 72.1973C981.202 72.1469 981.004 72.1175 980.946 72.0272C980.895 71.9412 981.011 71.7647 981.063 71.6241ZM979.745 77.1735C980.15 77.6648 980.57 78.1856 980.992 78.7042C980.69 78.9037 980.242 79.3341 980.11 79.2522C979.53 78.9036 979.048 78.3977 978.529 77.9546C978.829 77.7678 979.132 77.5746 979.745 77.1735ZM975.871 65.5351C975.99 65.6275 976.005 65.8668 976.07 66.039C975.94 66.1566 975.81 66.2804 975.682 66.4022C975.579 66.1397 975.474 65.8668 975.375 65.596C975.545 65.5771 975.776 65.4658 975.871 65.5351ZM976.908 72.8629C976.318 74.3327 975.904 75.3531 975.23 77.016C974.304 75.1053 973.731 73.9191 972.956 72.3275C974.302 72.5081 975.388 72.6593 976.908 72.8629ZM964.671 86.0888C964.528 86.3303 963.474 86.3197 963.058 86.0636C962.246 85.545 961.574 84.7723 960.652 83.9261C961.889 83.5314 962.832 83.0799 963.814 82.9687C964.249 82.9204 965.104 83.4957 965.15 83.8757C965.246 84.5875 965.034 85.4526 964.671 86.0888ZM950.036 76.2917C950.67 75.813 951.483 75.582 952.178 75.2649C953.736 76.004 955.183 76.6885 956.951 77.5347C958.502 75.9095 960.258 75.4393 960.881 73.5348C961.49 71.6724 962.038 71.6892 965.425 72.6614C965.666 74.0114 965.912 75.3574 966.187 76.8859C968.043 77.0749 969.656 77.1126 971.218 77.4192C972.18 77.6166 973.114 78.1793 972.568 79.3468C969.45 79.5042 966.452 79.6785 963.439 79.7918C962.655 79.8296 961.746 79.9346 961.102 79.605C958.943 78.4943 956.732 78.952 954.504 79.0297C953.112 79.0843 951.691 78.9646 950.322 78.7064C949.283 78.5195 949.102 76.9741 950.036 76.2917ZM947.09 75.6891C947.126 75.8655 947.16 76.0313 947.2 76.2056C946.904 76.2455 946.614 76.3084 946.324 76.3C946.28 76.3 946.244 75.9809 946.204 75.8066C946.503 75.7646 946.794 75.7269 947.09 75.6891ZM476.935 86.0636C476.519 86.3198 475.459 86.3303 475.318 86.0889C474.955 85.4527 474.747 84.5876 474.84 83.8758C474.888 83.4957 475.742 82.9204 476.175 82.9687C477.158 83.08 478.103 83.5314 479.343 83.9261C478.422 84.7723 477.741 85.545 476.935 86.0636ZM492.897 75.6892C493.199 75.7291 493.487 75.7647 493.785 75.8067C493.739 75.981 493.712 76.3001 493.663 76.3001C493.376 76.3085 493.09 76.2455 492.794 76.2056C492.834 76.0313 492.863 75.8655 492.897 75.6892ZM468.778 77.4172C470.344 77.1106 471.955 77.0728 473.809 76.8838C474.084 75.3552 474.327 74.0094 474.575 72.6593C477.962 71.6872 478.504 71.6703 479.119 73.5327C479.736 75.4371 481.491 75.9075 483.041 77.5327C484.811 76.6865 486.264 76.002 487.814 75.2629C488.515 75.58 489.319 75.8131 489.957 76.2897C490.89 76.9721 490.707 78.5195 489.67 78.7022C488.305 78.9605 486.881 79.0822 485.491 79.0255C483.259 78.9478 481.057 78.488 478.894 79.6008C478.25 79.9305 477.342 79.8234 476.553 79.7877C473.542 79.6743 470.548 79.5001 467.43 79.3426C466.876 78.1773 467.81 77.6146 468.778 77.4172ZM464.125 65.5351C464.222 65.4658 464.446 65.5792 464.614 65.596C464.511 65.8669 464.413 66.1398 464.31 66.4022C464.184 66.2804 464.052 66.1566 463.919 66.039C463.984 65.8669 463.995 65.6275 464.125 65.5351ZM467.031 72.3255C466.254 73.9192 465.687 75.1033 464.761 77.014C464.085 75.3532 463.674 74.3327 463.088 72.8608C464.606 72.6592 465.689 72.5082 467.031 72.3255ZM461.463 77.9547C460.948 78.3977 460.465 78.9037 459.879 79.2522C459.751 79.3341 459.306 78.9037 459 78.7042C459.415 78.1856 459.848 77.6649 460.247 77.1736C460.858 77.5746 461.16 77.7678 461.463 77.9547ZM458.928 71.6241C458.979 71.7627 459.096 71.9391 459.046 72.0273C458.991 72.1176 458.788 72.147 458.651 72.1974C458.617 72.0609 458.483 71.8866 458.527 71.7984C458.58 71.706 458.788 71.6871 458.928 71.6241ZM450.406 83.3761C450.975 82.9394 451.523 82.4228 452.171 82.1688C452.625 81.9966 453.211 82.1876 454.017 82.2296C453.635 82.9519 453.463 83.7246 453.129 83.8002C452.291 84.0059 451.378 83.8884 450.488 83.8632C450.452 83.8632 450.341 83.4244 450.406 83.3761ZM379.397 72.7496C379.411 72.7475 379.556 73.0919 379.548 73.1024C379.279 73.2389 379.008 73.3459 378.752 73.4718C378.691 73.3249 378.63 73.1864 378.574 73.0415C378.845 72.9428 379.12 72.8315 379.397 72.7496ZM326.584 83.4979C326.617 83.6469 326.737 83.9115 326.699 83.9367C326.546 84.0458 326.346 84.0606 326.172 84.1109C326.126 83.9598 326.084 83.8065 326.04 83.6554C326.222 83.6071 326.397 83.5566 326.584 83.4979ZM306.817 78.4292C307.048 78.5426 307.275 78.6581 307.5 78.7694C307.39 78.8932 307.288 79.0277 307.17 79.1557C307.019 79.0802 306.786 79.0339 306.729 78.9184C306.668 78.8071 306.779 78.5993 306.817 78.4292ZM296.831 58.0917C297.522 57.8859 297.621 57.9553 299.017 59.8975C298.051 60.2797 297.169 60.624 296.294 60.9599C295.389 61.3064 294.494 61.6466 293.56 62.0077C293.581 59.6162 294.204 58.9022 296.831 58.0917ZM291.819 73.8687L292.212 74.0766L291.788 74.2109L291.819 73.8687ZM248.495 54.8372C248.698 55.295 248.906 55.7507 249.118 56.2063C248.564 56.3743 248.03 56.5989 247.48 56.6619C247.39 56.6787 247.212 56.0446 247.008 55.568C247.489 55.3265 247.997 55.085 248.495 54.8372ZM240.075 7.42664C240.184 7.40564 240.352 7.63239 240.614 7.83186C239.953 7.83186 239.411 7.83186 238.874 7.83186C239.281 7.69118 239.67 7.51692 240.075 7.42664ZM192.431 75.4918C192.131 75.3805 191.864 75.1516 191.585 74.969C191.839 74.7695 192.091 74.5763 192.341 74.3789C192.54 74.675 192.729 74.9564 192.933 75.2462C192.765 75.3364 192.561 75.5359 192.431 75.4918ZM228.031 55.7045C225.898 56.8509 227.987 58.4907 227.678 60.0739C224.271 58.8918 221.365 57.867 218.018 56.6975C221.589 55.8786 224.606 54.0457 228.031 55.7045ZM208.16 56.009C209.569 56.662 208.758 57.7852 208.353 58.3731C207.727 59.2823 206.805 60.202 205.8 60.603C204.828 60.981 203.618 60.6849 202.514 60.6849C206.037 58.3564 206.037 58.3564 208.16 56.009ZM206.163 65.5582C211.019 65.2244 215.882 65.1571 220.808 64.9703C221.659 66.1986 222.4 67.2568 223.133 68.3003C222.656 68.6741 222.364 69.0983 222.049 69.1172C216.187 69.4846 210.331 69.8185 204.471 70.1187C203.876 70.1544 203.207 70.0767 202.671 69.829C200.498 68.7707 198.432 68.882 196.658 70.3664C194.671 69.3376 192.973 68.4432 190.405 67.112C196.189 65.1152 201.25 65.8942 206.163 65.5582ZM186.094 67.5718C186.445 67.5445 186.793 67.5467 187.148 67.5467C187.148 67.6852 187.165 68.0043 187.146 68.0085C186.793 68.04 186.445 68.04 186.09 68.0463C186.094 67.8784 186.09 67.576 186.094 67.5718ZM185.781 75.8004L185.615 76.1468L185.466 75.7941L185.781 75.8004ZM179.818 67.765C180.161 67.6412 180.963 68.0967 181.183 68.4914C181.595 69.2725 180.543 70.7109 179.703 70.5324C179.277 70.44 178.955 69.8499 178.292 69.2074C178.873 68.6258 179.26 67.9708 179.818 67.765ZM177.164 75.2462C177.196 75.4057 177.278 75.5652 177.246 75.7206C177.24 75.7689 176.906 75.8613 176.872 75.8109C176.774 75.6892 176.757 75.5044 176.717 75.3364C176.866 75.3028 177.013 75.2735 177.164 75.2462ZM131.889 56.7417C132.067 56.7333 132.252 56.7123 132.431 56.7018C132.466 56.8025 132.492 56.9076 132.519 57.0105C132.313 56.9202 132.093 56.8341 131.889 56.7417ZM152.835 68.903C150.639 68.4873 148.485 67.9036 145.499 67.1981C146.295 65.9698 146.706 65.3315 147.076 64.7603C148.607 65.237 149.923 65.6212 151.227 66.0579C152.334 66.4211 153.436 66.8495 154.412 67.2106C154.402 68.6321 153.679 69.071 152.835 68.903ZM146.486 50.8563L146.885 50.7849L146.681 51.146L146.486 50.8563ZM147.118 56.2672C148.174 53.9701 149.048 52.0595 150.253 49.4475C151.307 51.6437 152.134 53.3528 153.043 55.2131C151.145 56.7795 149.197 56.0908 147.118 56.2672ZM164.321 68.1303C162.838 68.1303 161.356 68.1303 159.873 68.1303C159.92 67.9644 159.972 67.7922 160.02 67.6327C161.469 67.6327 162.897 67.6327 164.337 67.6327C164.331 67.7922 164.325 67.9644 164.321 68.1303ZM164.426 55.5049C164.004 54.938 163.647 54.4404 163.269 53.9386C163.558 53.7874 163.939 53.443 164.117 53.5312C164.589 53.7433 164.976 54.1359 165.394 54.4656C165.173 54.7155 164.94 54.9611 164.426 55.5049ZM163.359 48.975C163.407 48.8238 163.456 48.6664 163.5 48.5194C163.758 48.6601 164.016 48.7818 164.241 48.9602C164.285 48.9959 164.165 49.2437 164.119 49.3907C163.869 49.25 163.611 49.1114 163.359 48.975ZM167.077 43.0539C166.805 42.9384 166.704 42.4429 166.532 42.1174C166.884 41.9852 167.239 41.8655 167.607 41.7353C167.747 42.0397 167.9 42.34 168.037 42.6381C167.714 42.7956 167.302 43.1504 167.077 43.0539ZM168.285 67.8678C168.432 67.7922 168.593 67.6663 168.736 67.6872C168.858 67.7061 168.963 67.8847 169.085 67.996C168.818 67.9498 168.549 67.9056 168.285 67.8678ZM169.843 55.4735C169.721 55.4735 169.601 54.8687 169.421 54.4005C170.019 54.348 170.571 54.2389 171.117 54.2787C171.222 54.2892 171.3 54.8604 171.382 55.1753C170.867 55.295 170.353 55.4735 169.843 55.4735ZM174.139 69.4448C174.078 69.5119 173.278 68.9996 173.316 68.8988C173.456 68.4096 173.767 67.977 174.015 67.5067C174.502 67.8216 174.8 68.0149 175.105 68.2081C174.785 68.6322 174.512 69.0962 174.139 69.4448ZM173.097 43.5347C172.982 43.5746 172.702 43.0644 172.23 42.4681C173.038 42.2497 173.679 42.0649 174.323 41.8823C174.41 42.1888 174.643 42.6927 174.559 42.7704C174.126 43.1042 173.618 43.3751 173.097 43.5347ZM168.484 33.5823L168.484 33.5738C168.52 33.5969 168.549 33.6221 168.583 33.6368C170.447 33.3597 172.295 31.8732 174.512 33.7713C174.057 34.5692 173.599 35.3649 173.026 36.3686C171.413 35.3796 170 34.5103 168.583 33.6368C168.575 33.6431 168.558 33.6453 168.549 33.6453C168.533 33.6264 168.505 33.6011 168.484 33.5823C168.062 34.3654 167.667 35.1906 167.088 36.3581C166.013 35.4342 165.32 34.777 164.57 34.2101C163.848 33.6831 163.063 33.2463 162.152 32.6794C164.877 30.6196 166.716 31.8689 168.484 33.5823ZM163.791 64.3634C161.837 64.6616 161.837 64.6616 159.391 63.9141C161.629 62.6207 162.689 63.4753 163.791 64.3634ZM146.522 30.4726C146.604 30.1954 147.601 29.9394 148.063 30.0695C149.035 30.353 150.097 30.9052 149.948 32.1314C149.816 33.2568 149.383 34.3528 149.045 35.4573C149.077 35.4783 149.1 35.4992 149.125 35.5139C149.132 35.5286 149.136 35.535 149.142 35.5434C151.074 34.5439 153.054 33.6138 154.912 32.4715C156.585 31.4469 157.919 31.745 159.414 33.0132C157.723 35.5937 155.26 36.8493 152.478 37.433C151.025 37.748 149.656 37.2252 149.14 35.5434C149.089 35.5686 149.043 35.5938 148.993 35.6148C149.004 35.5665 149.031 35.514 149.045 35.4573C148.096 34.7434 146.929 34.1786 146.337 33.2359C145.923 32.5934 146.253 31.365 146.522 30.4726ZM145.228 35.5938C145.285 35.8226 145.337 36.0494 145.39 36.2782C145.207 36.2677 144.993 36.3076 144.855 36.2299C144.756 36.1795 144.773 35.9464 144.737 35.7932C144.907 35.7218 145.067 35.6609 145.228 35.5938ZM145.043 39.9149C147.139 39.243 149.306 39.033 151.456 39.9401C153.115 40.6351 154.813 41.223 157.308 42.172C154.408 43.8707 152.35 45.0758 150.062 46.4175C148.632 45.4013 148.176 42.6717 145.638 43.5032C145.476 43.5599 145.165 43.541 145.058 43.4255C144.554 42.8796 143.721 42.2749 143.731 41.7038C143.742 41.0739 144.443 40.1164 145.043 39.9149ZM140.361 40.3411C140.804 40.5721 141.113 41.034 141.478 41.3909C141.016 41.4224 140.554 41.5422 140.122 41.4603C139.769 41.4057 139.456 41.1117 138.354 40.4923C139.631 40.3705 140.09 40.192 140.361 40.3411ZM130.873 29.2212C131.574 28.7424 132.796 28.7132 133.676 28.921C134.782 29.1856 135.855 29.8154 136.813 30.4705C137.207 30.7498 137.48 31.5372 137.447 32.06C137.401 32.5808 136.934 33.4541 136.58 33.5024C133.842 33.8153 131.093 33.9665 128.198 34.1765C128.196 31.6821 129.388 30.2605 130.873 29.2212ZM128.061 41.687C129.346 41.2418 130.461 41.8424 131.148 43.0014C131.28 43.224 131.085 43.9253 130.879 44.0093C129.76 44.4607 128.603 44.9688 127.427 45.0906C126.896 45.1473 126.281 44.3494 125.231 43.6061C126.512 42.72 127.207 41.9851 128.061 41.687ZM120.696 32.0243C120.855 32.0159 121.011 32.1061 121.168 32.1565C121.128 32.2888 121.088 32.5219 121.017 32.5261C120.876 32.5429 120.704 32.4505 120.544 32.4022C120.593 32.2741 120.637 32.0285 120.696 32.0243ZM102.16 33.3534C102.37 33.5276 102.59 33.6978 102.817 33.87C102.718 34.0043 102.611 34.1344 102.512 34.2667C102.3 34.082 102.069 33.914 101.87 33.723C101.859 33.7041 102.061 33.4815 102.16 33.3534ZM91.0544 33.6221C91.1468 33.956 91.193 34.1261 91.2455 34.294C91.0964 34.3297 90.9474 34.3696 90.8025 34.4158C90.8655 34.1953 90.9431 33.977 91.0544 33.6221ZM29.7082 5.17576C28.0369 7.02977 26.4999 6.96464 24.2617 6.39143C26.017 4.74528 27.491 4.46187 29.7082 5.17576ZM18.5317 38.1806C18.6912 38.1386 18.8466 38.0966 19.0062 38.0441C19.0062 38.1596 19.0482 38.3506 19.002 38.3716C18.8487 38.4409 18.666 38.4473 18.5044 38.4683C18.5128 38.3717 18.5233 38.2792 18.5317 38.1806Z" fill="#101010"></path><path fill-rule="evenodd" clip-rule="evenodd" d="M1015.1 80.9906C1015.04 81.0095 1014.97 80.9907 1014.91 81.0096C1014.93 81.0432 1014.95 81.0936 1014.98 81.1313L1015.1 80.9906Z" fill="#101010"></path></svg>