<svg xmlns="http://www.w3.org/2000/svg" width="50" height="27" viewBox="0 0 50 27" fill="none"><g clip-path="url(#clip0_190_175)"><path fill-rule="evenodd" clip-rule="evenodd" d="M4.22754 12.3202L4.1543 12.3579C4.17057 12.3956 4.18278 12.4334 4.19092 12.4753C5.6639 19.1697 8.75228 19.8614 14.042 21.0393C14.7541 21.1986 15.5068 21.3663 16.3328 21.5675L30.8063 25.0635C33.0036 25.5037 35.1276 25.5791 37.0807 25.1977C38.4032 24.9378 39.6523 24.4725 40.7917 23.7724C37.0238 23.7934 34.3057 22.8502 30.6069 21.2615C24.6458 18.7044 20.5117 15.2838 15.6289 13.1208C12.0238 11.5237 8.28841 10.7985 4.22754 12.3202ZM2.74235 12.928C1.18392 13.4226 0.121908 13.1753 0.00390629 11.5405C-0.089681 9.74635 0.813639 8.00672 2.68945 6.32577C14.1112 -3.92342 33.2884 -1.26576 42.3135 11.0794C45.0804 14.8688 46.8545 18.2182 49.9998 22.1544C48.7507 22.8251 47.4852 23.282 46.1912 23.4748C45.8535 23.5251 44.5596 23.609 43.1842 23.6844C43.1517 23.8605 43.0622 24.0281 42.9157 24.1455C41.2718 25.4995 39.3919 26.3379 37.3615 26.7319C35.2131 27.1511 32.8978 27.0757 30.5174 26.5978L15.991 23.0808C15.222 22.8963 14.453 22.7245 13.7205 22.561C7.8693 21.2573 4.43913 20.486 2.74235 12.928ZM17.4966 4.72027C20.2065 3.65972 22.9653 3.07705 25.0609 3.37048C23.535 4.37653 21.883 5.28198 19.9339 6.07844C19.938 8.10313 19.6979 10.5889 19.2585 12.5885C18.8923 9.95176 18.3674 6.90844 17.4966 4.72027ZM33.6465 12.5507C36.4378 11.7459 39.2373 11.4231 41.3003 11.9094C39.693 12.7729 37.9678 13.5149 35.9577 14.1269C35.7827 16.1432 35.327 18.5954 34.7126 20.5489C34.5783 17.8912 34.3219 14.8144 33.6465 12.5507ZM26.0049 7.91869C28.7962 7.11384 31.5957 6.79107 33.6587 7.27733C32.0514 8.14086 30.3262 8.88282 28.3161 9.49484C28.1411 11.5111 27.6854 13.9634 27.071 15.9168C26.9326 13.2592 26.6763 10.1823 26.0049 7.91869Z" fill="white"></path></g><defs><clipPath id="clip0_190_175"><rect width="50" height="27" fill="white"></rect></clipPath></defs></svg>