<svg xmlns="http://www.w3.org/2000/svg" width="50" height="58" viewBox="0 0 50 58" fill="none"><g clip-path="url(#clip0_190_159)"><path fill-rule="evenodd" clip-rule="evenodd" d="M18.5383 30.4821C17.8551 30.4821 17.303 29.8166 17.303 29C17.303 28.1787 17.8551 27.5179 18.5383 27.5179H34.8634C35.5465 27.5179 36.0986 28.1834 36.0986 29C36.0986 29.8213 35.5465 30.4821 34.8634 30.4821H18.5383ZM21.8838 55.0264C22.6979 55.0264 23.3577 55.6919 23.3577 56.5132C23.3577 57.3345 22.6979 58 21.8838 58H3.42972C2.48456 58 1.6283 57.613 1.00599 56.9852C0.38368 56.3574 0 55.4937 0 54.5402V3.4598C0 2.50635 0.38368 1.64258 1.00599 1.01481C1.6283 0.387044 2.48456 0 3.42972 0H45.5503C46.4954 0 47.3517 0.391764 47.974 1.01481C48.5963 1.64258 48.98 2.50635 48.98 3.4598V27.1261C48.98 27.9474 48.3202 28.613 47.5061 28.613C46.6919 28.613 46.0322 27.9474 46.0322 27.1261V3.4598C46.0322 3.32764 45.976 3.20492 45.8871 3.11995C45.7982 3.03027 45.6813 2.97363 45.5503 2.97363H3.42972C3.29871 2.97363 3.17705 3.03027 3.08815 3.11523C3.00393 3.20964 2.94778 3.32764 2.94778 3.4598V54.5355C2.94778 54.6676 3.00393 54.7904 3.08815 54.8753C3.17705 54.965 3.29871 55.0216 3.42972 55.0216H21.8838V55.0264ZM46.1819 35.0889C45.9433 34.8576 45.6672 34.749 45.3491 34.7537C45.0309 34.7585 44.7595 34.8812 44.5349 35.1219L42.7054 37.043L47.8383 42.0415L49.6865 40.1016C49.9064 39.875 50 39.5824 49.9953 39.2614C49.9906 38.9452 49.8783 38.6572 49.6538 38.4401L46.1819 35.0889ZM36.5946 53.8133C35.9162 54.0304 35.2424 54.257 34.5686 54.4788C33.8901 54.7054 33.2164 54.9367 32.5426 55.1632C30.947 55.6919 30.0533 55.9845 29.8662 56.0365C29.6837 56.0931 29.7913 55.3379 30.1937 53.7661L31.4617 48.8337L41.0771 38.7422L46.2053 43.7218L36.5946 53.8133ZM18.5383 41.0409C17.8551 41.0409 17.2983 40.3659 17.2983 39.5352C17.2983 38.7044 17.8551 38.0295 18.5383 38.0295H26.5815C27.2646 38.0295 27.8214 38.7044 27.8214 39.5352C27.8214 40.3659 27.2646 41.0409 26.5815 41.0409H18.5383ZM18.5383 19.9469C17.8551 19.9469 17.303 19.2814 17.303 18.4648C17.303 17.6436 17.8551 16.9827 18.5383 16.9827H34.8634C35.5465 16.9827 36.0986 17.6483 36.0986 18.4648C36.0986 19.2861 35.5465 19.9469 34.8634 19.9469H18.5383ZM11.4542 37.5055C12.4181 37.5055 13.1948 38.2938 13.1948 39.2614C13.1948 40.2337 12.4134 41.0173 11.4542 41.0173C10.4904 41.0173 9.71364 40.229 9.71364 39.2614C9.71364 38.2938 10.495 37.5055 11.4542 37.5055ZM11.4542 27.112C12.4181 27.112 13.1948 27.9002 13.1948 28.8678C13.1948 29.8402 12.4134 30.6237 11.4542 30.6237C10.4904 30.6237 9.71364 29.8354 9.71364 28.8678C9.71364 27.9002 10.495 27.112 11.4542 27.112ZM11.4542 16.7184C12.4181 16.7184 13.1948 17.5067 13.1948 18.4743C13.1948 19.4466 12.4134 20.2301 11.4542 20.2301C10.4904 20.2301 9.71364 19.4419 9.71364 18.4743C9.71364 17.502 10.495 16.7184 11.4542 16.7184Z" fill="white"></path></g><defs><clipPath id="clip0_190_159"><rect width="50" height="58" fill="white"></rect></clipPath></defs></svg>