<svg xmlns="http://www.w3.org/2000/svg" width="50" height="50" viewBox="0 0 50 50" fill="none"><g clip-path="url(#clip0_190_10)"><path fill-rule="evenodd" clip-rule="evenodd" d="M6.66102 49.7682L4.80962 47.9168C4.73629 47.8445 4.67807 47.7584 4.63833 47.6634C4.59859 47.5684 4.57812 47.4664 4.57812 47.3635C4.57812 47.2605 4.59859 47.1585 4.63833 47.0635C4.67807 46.9685 4.73629 46.8824 4.80962 46.8101L48.6247 4.80568C48.7754 4.66494 48.9739 4.58667 49.1801 4.58667C49.3863 4.58667 49.5849 4.66494 49.7356 4.80568L49.7722 4.8423C49.9129 4.993 49.9912 5.19152 49.9912 5.39772C49.9912 5.60392 49.9129 5.80243 49.7722 5.95314L7.76779 49.7682C7.69549 49.8416 7.60933 49.8998 7.51433 49.9395C7.41933 49.9793 7.31738 49.9997 7.2144 49.9997C7.11143 49.9997 7.00948 49.9793 6.91448 49.9395C6.81948 49.8998 6.73332 49.8416 6.66102 49.7682ZM2.08338 45.1906L0.231982 43.3392C0.158658 43.2669 0.100434 43.1807 0.0606936 43.0857C0.0209531 42.9907 0.000488281 42.8888 0.000488281 42.7858C0.000488281 42.6828 0.0209531 42.5809 0.0606936 42.4859C0.100434 42.3909 0.158658 42.3047 0.231982 42.2324L44.0471 0.228039C44.1978 0.0873078 44.3963 0.0090332 44.6025 0.0090332C44.8087 0.0090332 45.0072 0.0873078 45.1579 0.228039L45.1945 0.26466C45.3353 0.415369 45.4136 0.61388 45.4136 0.82008C45.4136 1.02628 45.3353 1.22479 45.1945 1.3755L3.19015 45.1906C3.11785 45.2639 3.03169 45.3221 2.93669 45.3619C2.84169 45.4016 2.73974 45.4221 2.63677 45.4221C2.53379 45.4221 2.43184 45.4016 2.33684 45.3619C2.24184 45.3221 2.15569 45.2639 2.08338 45.1906ZM16.386 27.3846L27.0712 17.1429L28.2919 18.3636L18.038 29.0366L16.386 27.3846ZM20.9636 31.9622L31.6488 21.7206L32.8695 22.9413L22.6156 33.6143L20.9636 31.9622Z" fill="white"></path></g><defs><clipPath id="clip0_190_10"><rect width="50" height="50" fill="white"></rect></clipPath></defs></svg>