<svg xmlns="http://www.w3.org/2000/svg" width="30" height="30" viewBox="0 0 30 30" fill="none"><circle cx="15" cy="15" r="14" stroke="white" stroke-width="2"></circle><path d="M20.7693 16C21.3216 16 21.7693 15.5523 21.7693 15C21.7693 14.4477 21.3216 14 20.7693 14V16ZM7.36987 14.2929C6.97935 14.6834 6.97935 15.3166 7.36987 15.7071L13.7338 22.0711C14.1244 22.4616 14.7575 22.4616 15.148 22.0711C15.5386 21.6805 15.5386 21.0474 15.148 20.6569L9.49119 15L15.148 9.34315C15.5386 8.95262 15.5386 8.31946 15.148 7.92893C14.7575 7.53841 14.1244 7.53841 13.7338 7.92893L7.36987 14.2929ZM20.7693 15V14L8.07698 14V15V16H20.7693V15Z" fill="white"></path></svg>