<svg xmlns="http://www.w3.org/2000/svg" width="30" height="30" viewBox="0 0 30 30" fill="none"><path d="M15 29C7.26801 29 1 22.732 1 15C1 7.26801 7.26802 0.999998 15 0.999999C22.732 1 29 7.26802 29 15C29 22.732 22.732 29 15 29Z" stroke="white" stroke-width="2"></path><path d="M9.23071 14C8.67843 14 8.23071 14.4477 8.23071 15C8.23071 15.5523 8.67843 16 9.23071 16L9.23071 14ZM22.6301 15.7071C23.0207 15.3166 23.0207 14.6834 22.6301 14.2929L16.2662 7.92893C15.8756 7.53841 15.2425 7.53841 14.852 7.92893C14.4614 8.31946 14.4614 8.95262 14.852 9.34315L20.5088 15L14.852 20.6569C14.4614 21.0474 14.4614 21.6805 14.852 22.0711C15.2425 22.4616 15.8756 22.4616 16.2662 22.0711L22.6301 15.7071ZM9.23071 15L9.23071 16L21.923 16L21.923 15L21.923 14L9.23071 14L9.23071 15Z" fill="white"></path></svg>